<?xml version="1.0" standalone="no"?>
<!DOCTYPE svg PUBLIC "-//W3C//DTD SVG 1.1//EN" "http://www.w3.org/Graphics/SVG/1.1/DTD/svg11.dtd" >
<svg xmlns="http://www.w3.org/2000/svg">
<metadata>
Created by FontForge 20120731 at Mon Nov  7 22:07:51 2016
 By admin
</metadata>
<defs>
<font id="iconfont" horiz-adv-x="1024" >
  <font-face 
    font-family="iconfont"
    font-weight="500"
    font-stretch="normal"
    units-per-em="1024"
    panose-1="2 0 6 3 0 0 0 0 0 0"
    ascent="896"
    descent="-128"
    x-height="792"
    bbox="0 -212 1282 896"
    underline-thickness="0"
    underline-position="0"
    unicode-range="U+0078-E6E7"
  />
<missing-glyph 
 />
    <glyph glyph-name=".notdef" 
 />
    <glyph glyph-name=".notdef" 
 />
    <glyph glyph-name=".null" horiz-adv-x="0" 
 />
    <glyph glyph-name="nonmarkingreturn" horiz-adv-x="341" 
 />
    <glyph glyph-name="x" unicode="x" horiz-adv-x="1001" 
d="M281 543q-27 -1 -53 -1h-83q-18 0 -36.5 -6t-32.5 -18.5t-23 -32t-9 -45.5v-76h912v41q0 16 -0.5 30t-0.5 18q0 13 -5 29t-17 29.5t-31.5 22.5t-49.5 9h-133v-97h-438v97zM955 310v-52q0 -23 0.5 -52t0.5 -58t-10.5 -47.5t-26 -30t-33 -16t-31.5 -4.5q-14 -1 -29.5 -0.5
t-29.5 0.5h-32l-45 128h-439l-44 -128h-29h-34q-20 0 -45 1q-25 0 -41 9.5t-25.5 23t-13.5 29.5t-4 30v167h911zM163 247q-12 0 -21 -8.5t-9 -21.5t9 -21.5t21 -8.5q13 0 22 8.5t9 21.5t-9 21.5t-22 8.5zM316 123q-8 -26 -14 -48q-5 -19 -10.5 -37t-7.5 -25t-3 -15t1 -14.5
t9.5 -10.5t21.5 -4h37h67h81h80h64h36q23 0 34 12t2 38q-5 13 -9.5 30.5t-9.5 34.5q-5 19 -11 39h-368zM336 498v228q0 11 2.5 23t10 21.5t20.5 15.5t34 6h188q31 0 51.5 -14.5t20.5 -52.5v-227h-327z" />
    <glyph glyph-name="upload" unicode="&#xe606;" 
d="M896 -79h-768q-21 0 -35.5 15t-14.5 35v251q0 21 14.5 35.5t35.5 14.5t35.5 -14.5t14.5 -35.5v-200h668v200q0 21 14.5 35.5t35.5 14.5t35.5 -14.5t14.5 -35.5v-251q0 -20 -14.5 -35t-35.5 -15zM662 456q-22 0 -37 17v0l-63 70v-304v0q0 -21 -14.5 -35.5t-35.5 -14.5
t-35.5 14.5t-14.5 35.5v0v304l-63 -70v0q-15 -17 -37 -17q-21 0 -35.5 15t-14.5 36q0 19 13 33v0l150 167v0q15 17 37 17t37 -17v0l150 -167v0q13 -14 13 -33q0 -21 -14.5 -36t-35.5 -15z" />
    <glyph glyph-name="check" unicode="&#xe62a;" 
d="M512 812q-104 0 -199 -40.5t-163.5 -109t-109 -163.5t-40.5 -199t40.5 -199t109 -163.5t163.5 -109t199 -40.5t199 40.5t163.5 109t109 163.5t40.5 199t-40.5 199t-109 163.5t-163.5 109t-199 40.5zM440 40l-296 296l79 79l217 -216l361 361l79 -79z" />
    <glyph glyph-name="plus" unicode="&#xe635;" 
d="M31 781v0v0zM786 334h-209v209q0 18 -12.5 23.5t-37 5.5t-37 -5.5t-12.5 -23.5v-209h-209q-18 0 -23.5 -12.5t-5.5 -37t5.5 -37t23.5 -12.5h209v-209q0 -18 12.5 -23.5t37 -5.5t37 5.5t12.5 23.5v209h209q18 0 23.5 12.5t5.5 37t-5.5 37t-23.5 12.5z" />
    <glyph glyph-name="bianji" unicode="&#xe602;" 
d="M519.5 763q-95.5 0 -182.5 -37t-149.5 -99.5t-99.5 -149.5t-37 -182.5t37 -182.5t99.5 -150t149.5 -100t182.5 -37t182.5 37t150 100t100 150t37 182.5t-37 182.5t-100 149.5t-150 99.5t-182.5 37zM426 279l212 209l73 -76l-209 -212l-76 79v0zM484 190l-116 -50l45 119
l71 -69v0zM741 52v0q0 -4 -3.5 -7.5t-8.5 -3.5h-454q-5 0 -8.5 3.5t-3.5 7.5v451q0 5 3.5 8.5t8.5 3.5h323l-47 -50h-228q-9 0 -9 -10v-354q0 -10 9 -10h358q9 0 9 10v227l51 47v-323v0zM772 470l-42 -44l-77 77l38 37q17 17 39 0q10 -7 20.5 -16.5t15.5 -14.5l6 -6
q1 -3 2 -6.5t2 -13t-4 -13.5z" />
    <glyph glyph-name="users" unicode="&#xe615;" horiz-adv-x="1152" 
d="M768 41v53q54 31 91 98t37 140q0 45 -0.5 67t-4 59t-10.5 55t-21 42.5t-34 36t-51 20t-71 8.5t-71 -8.5t-51 -20t-34 -36t-21 -42.5t-10.5 -55t-4 -59t-0.5 -67q0 -73 37 -140t91 -98v-53q-107 -8 -195 -43.5t-138.5 -91t-50.5 -118.5h896q0 63 -50.5 118.5t-138.5 91
t-195 43.5zM327 17q84 54 200 80q-23 27 -41 59q-46 85 -46 176q0 57 1 87t8 73t22 74q44 97 159 119q-14 62 -55.5 94.5t-126.5 32.5q-40 0 -71 -8.5t-51 -20t-34 -36t-21 -42.5t-10.5 -55t-4 -59t-0.5 -67q0 -73 37 -140t91 -98v-53q-107 -8 -195 -43.5t-138.5 -91
t-50.5 -118.5h279q22 20 48 37v0z" />
    <glyph glyph-name="qq" unicode="&#xe65b;" 
d="M512 764q-94 0 -180 -36.5t-148.5 -99t-99 -148.5t-36.5 -180t36.5 -180t99 -148.5t148.5 -99t180 -36.5t180 36.5t148.5 99t99 148.5t36.5 180t-36.5 180t-99 148.5t-148.5 99t-180 36.5v0zM718 187q-15 -40 -42 -76l5 -2.5t11.5 -6.5t14 -11t10 -16.5t3.5 -22.5
q0 -2 -0.5 -5.5t-6 -11.5t-15 -14t-31 -10t-50.5 -4q-8 1 -21 3t-39 11t-35 23h-20q-10 -14 -33.5 -23t-42.5 -11l-19 -3q-29 0 -50.5 4.5t-31 10t-15 14t-6 11t-0.5 5.5q-4 38 40 57l4 2q-12 16 -22.5 35t-14.5 30l-5 11q-49 -80 -57 -16q-1 9 -1 30q5 32 21.5 61.5
t28.5 43t13 13.5q-3 29 2 48t11 24l7 4q1 41 11.5 74t25.5 53t35.5 34.5t37 21t35 10t25.5 4t11 0.5t11 -0.5t25.5 -4t35 -10t37 -21t35.5 -34.5t25.5 -53t11.5 -74q3 -1 7.5 -4.5t10 -23t2.5 -48.5q5 -5 14 -14.5t26.5 -40.5t22.5 -63v0q1 0 1 -6t-1 -15t-2.5 -18t-5.5 -14
t-10 -4.5t-16.5 11t-23.5 32.5v0z" />
    <glyph glyph-name="dian" unicode="&#xe62b;" 
d="M439 457zM146 457q0 121 86 207t207 86t206.5 -86t85.5 -207t-85.5 -206.5t-206.5 -85.5t-207 85.5t-86 206.5z" />
    <glyph glyph-name="jinzhi" unicode="&#xe637;" 
d="M512 832q92 0 174.5 -35.5t143 -96.5t95.5 -142.5t35 -173.5q0 -93 -35 -174.5t-96 -142.5q-60 -61 -143 -96q-82 -34 -174 -34q-93 0 -175 34.5t-143 95.5t-95.5 142.5t-34.5 174.5q0 92 34.5 173.5t95.5 142.5t143 96.5t175 35.5v0zM509 709q-67 0 -125.5 -25
t-102 -68.5t-68.5 -102t-25 -125.5q0 -51 14 -95.5t41 -83.5l446 443q-39 27 -85 42q-45 15 -95 15v0zM509 68q66 0 124.5 25t102 68.5t68.5 102t25 124.5q0 96 -50 174l-445 -443q39 -25 83 -38q43 -13 92 -13v0z" />
    <glyph glyph-name="shanchu" unicode="&#xe603;" 
d="M512 896q-139 0 -257 -68.5t-186.5 -186.5t-68.5 -257t68.5 -257t186.5 -186.5t257 -68.5t257 68.5t186.5 186.5t68.5 257t-68.5 257t-186.5 186.5t-257 68.5zM800 339h-576v96h576v-96z" />
    <glyph glyph-name="weixin" unicode="&#xe620;" horiz-adv-x="1025" 
d="M320 588q-15 0 -27 -9.5t-12 -23.5t12 -23.5t27 -9.5t24 9t9 24t-9 24t-24 9zM502 522q15 0 24 9t9 24t-9 24t-24 9t-27 -9.5t-12 -23.5t12 -23.5t27 -9.5zM512 896q-139 0 -257 -68.5t-186.5 -186.5t-68.5 -257t68.5 -257t186.5 -186.5t257 -68.5q104 0 199 40.5
t163.5 109t109 163.5t40.5 199t-40.5 199t-109 163.5t-163.5 109t-199 40.5zM405 252q-26 0 -91 13l-91 -46l26 79q-104 74 -104 178q0 93 76 158.5t184 65.5q96 0 170.5 -53t91.5 -132q-14 1 -25 1q-92 0 -156.5 -60.5t-64.5 -147.5q0 -27 8 -55q-12 -1 -24 -1zM788 160
l20 -66l-72 39q-52 -13 -78 -13q-92 0 -156.5 56t-64.5 135t64.5 135t156.5 56q89 0 155 -56.5t66 -134.5q0 -82 -91 -151zM730 397q-10 0 -18 -8.5t-8 -18t8 -18t18 -8.5q14 0 23 8t9 18.5t-9 18.5t-23 8zM587 397q-10 0 -18 -8.5t-8 -18t8 -18t18 -8.5q14 0 23 8t9 18.5
t-9 18.5t-23 8z" />
    <glyph glyph-name="cuowu" unicode="&#xe62c;" 
d="M252 200q0 30 27 57l127 127l-127 127q-26 27 -26 57v4q0 16 4 27q7 17 15 25q11 10 26 16q9 4 26 4h4q12 0 29 -7q13 -6 28 -20l127 -127l126 127q28 27 58 27h5q31 0 51 -20q11 -11 15 -25q5 -14 5 -27v-4q0 -13 -7 -29q-7 -14 -20 -28l-127 -127l127 -127
q26 -26 26 -57v-3q0 -18 -5 -27q-1 -4 -3 -7.5t-5.5 -9t-5.5 -9.5q-19 -19 -51 -19h-5q-31 0 -58 27l-126 126l-127 -126q-28 -27 -57 -27h-4q-17 0 -26 5q-19 7 -26 14q-11 12 -15.5 26t-4.5 26v4v0zM0 384q0 -213 150 -362q149 -150 362 -150t362 150q150 149 150 362
t-150 363q-149 149 -362 149t-362 -149q-150 -150 -150 -363z" />
    <glyph glyph-name="warn-copy" unicode="&#xe605;" 
d="M512 786q-109 0 -201 -53.5t-145.5 -145.5t-53.5 -201t53.5 -201.5t145.5 -146t201 -53.5t201 53.5t145.5 146t53.5 201.5t-53.5 201t-145.5 145.5t-201 53.5zM512 167q-19 0 -32.5 13.5t-13.5 32.5t13.5 32.5t32.5 13.5t32.5 -13.5t13.5 -32.5t-13.5 -32.5t-32.5 -13.5z
M537 316q-6 -21 -25 -21q-8 0 -15.5 6t-9.5 15q-4 13 -17 108.5t-13 142.5q0 17 15 36.5t39.5 19.5t40 -19.5t15.5 -36.5q0 -47 -12.5 -142t-17.5 -109z" />
    <glyph glyph-name="sign" unicode="&#xe636;" 
d="M855 747h-88v53q0 13 -9 23t-22.5 10t-23 -10t-9.5 -23v-53h-383v53q0 13 -9.5 23t-22.5 10t-22.5 -10t-9.5 -23v-53h-88q-43 0 -73.5 -31.5t-30.5 -76.5v-594q0 -44 30.5 -76t73.5 -32h687q43 0 73.5 32t30.5 76v594q0 45 -30.5 76.5t-73.5 31.5zM128 5v662h128v-33
q0 -14 9.5 -23.5t22.5 -9.5t22.5 9.5t9.5 23.5v33h383v-33q0 -14 9.5 -23.5t23 -9.5t22.5 9.5t9 23.5v33h128l1 -662h-768zM768.5 535q-12.5 0 -21.5 -9l-312 -315l-159 160q-9 9 -21.5 9t-21.5 -9t-9 -22t9 -22l180 -181q9 -9 22 -9q8 0 15 4q4 2 7 5l333 336q9 9 9 22
t-9 22t-21.5 9z" />
    <glyph glyph-name="erweima" unicode="&#xe60b;" 
d="M391 303h-201q-17 0 -28.5 -11.5t-11.5 -28.5v-201q0 -17 11.5 -28.5t28.5 -11.5h201q17 0 28.5 11.5t11.5 28.5v201q0 17 -11.5 28.5t-28.5 11.5v0zM391 82q0 -8 -6 -14t-14 -6h-161q-8 0 -14 6t-6 14v161q0 8 6 14t14 6h161q8 0 14 -6t6 -14v-161v0zM522 303h-20
q-10 0 -10 -10v-181q0 -10 10 -10h20q10 0 10 10v181q0 10 -10 10v0zM502 464h20q4 0 7 3t3 7v262q0 4 -3 7t-7 3h-20q-10 0 -10 -10v-262q0 -10 10 -10v0zM190 464h201q17 0 28.5 12t11.5 28v201q0 17 -11.5 29t-28.5 12h-201q-17 0 -28.5 -12t-11.5 -29v-201
q0 -16 11.5 -28t28.5 -12v0zM190 685q0 9 6 14.5t14 5.5h161q8 0 14 -5.5t6 -14.5v-161q0 -8 -6 -14t-14 -6h-161q-8 0 -14 6t-6 14v161v0zM643 243h-21q-10 0 -10 -10v-201q0 -10 10 -10h21q10 0 10 10v201q0 10 -10 10v0zM864 404h-704q-10 0 -10 -10v-20q0 -10 10 -10
h704q10 0 10 10v20q0 10 -10 10v0zM834 746h-202q-16 0 -28 -12t-12 -29v-201q0 -16 12 -28t28 -12h202q16 0 28 12t12 28v201q0 17 -12 29t-28 12v0zM834 524q0 -8 -6 -14t-15 -6h-160q-9 0 -15 6t-6 14v161q0 9 6 14.5t15 5.5h160q9 0 15 -5.5t6 -14.5v-161v0zM743 243
h-20q-10 0 -10 -10v-201q0 -10 10 -10h20q10 0 10 10v201q0 10 -10 10v0zM844 303h-20q-11 0 -11 -10v-261q0 -10 11 -10h20q4 0 7 3t3 7v261q0 10 -10 10v0zM844 303z" />
    <glyph glyph-name="jiahao2fill" unicode="&#xe611;" 
d="M828.5 699.5q-63.5 63.5 -145 97t-171.5 33.5t-171.5 -33.5t-145 -97t-97.5 -145t-34 -170.5t34 -170.5t97.5 -145t145 -97t171.5 -33.5t171.5 33.5t145 97t97.5 145t34 170.5t-34 170.5t-97.5 145zM736 352h-192v-192q0 -13 -9.5 -22.5t-22.5 -9.5t-22.5 9.5t-9.5 22.5
v192h-192q-13 0 -22.5 9.5t-9.5 22.5t9.5 22.5t22.5 9.5h192v192q0 13 9.5 22.5t22.5 9.5t22.5 -9.5t9.5 -22.5v-192h192q13 0 22.5 -9.5t9.5 -22.5t-9.5 -22.5t-22.5 -9.5z" />
    <glyph glyph-name="jianhao" unicode="&#xe612;" 
d="M864 352h-701q-13 0 -22.5 9.5t-9.5 22.5t9.5 22.5t22.5 9.5h701q13 0 22.5 -9.5t9.5 -22.5t-9.5 -22.5t-22.5 -9.5z" />
    <glyph glyph-name="xuanze" unicode="&#xe610;" 
d="M888 598q-10 9 -23 8.5t-22 -10.5l-427 -454l-233 230q-10 9 -23 9t-22.5 -9.5t-9.5 -23t10 -22.5l256 -253h1v0q1 -1 7 -4q0 -1 1 -1.5t2 -1.5q6 -2 12 -2t12 3q1 0 2 1t2 1q5 3 7 5v0v0l449 479q9 9 9 22.5t-10 22.5z" />
    <glyph glyph-name="address" unicode="&#xe609;" 
d="M702 542q0 79 -55.5 135t-134.5 56t-134.5 -56t-55.5 -134.5t55.5 -134.5t134.5 -56t134.5 56t55.5 134v0zM364 542q0 62 43.5 105t104.5 43t104.5 -43t43.5 -104.5t-43.5 -104.5t-104.5 -43t-104.5 43t-43.5 104v0zM850 542q0 92 -45 170t-123 123t-170 45t-170 -45
t-123 -123t-45 -170q0 -52 36.5 -134t81 -153t102.5 -150.5t81 -108.5t37 -45v0q14 17 36.5 45t81 108t103 151t81 153t36.5 134v0zM512 838q122 0 209 -86.5t87 -209.5q0 -45 -30.5 -116.5t-74 -140.5t-87 -131.5t-74.5 -100.5l-30 -39q-12 15 -32 40.5t-71 97.5t-90 135.5
t-71 136.5t-32 118q0 123 87 209.5t209 86.5v0zM661 86q-11 -16 -26 -36q68 -8 110 -23t42 -34q0 -26 -80.5 -44.5t-194.5 -18.5t-194 18.5t-80 44.5q0 19 41.5 34t110.5 23q-15 19 -27 36q-76 -13 -122 -38t-46 -55q0 -44 93 -74.5t224 -30.5t224 30.5t93 74.5q0 30 -46 55
t-122 38v0z" />
    <glyph glyph-name="erweima1" unicode="&#xe62d;" 
d="M384 832h-250q-37 0 -63 -26.5t-26 -63.5v-227q0 -38 26.5 -63.5t62.5 -25.5h250q38 0 64 26.5t26 62.5v227q0 37 -26 63.5t-64 26.5zM429 515q0 -19 -13 -32t-32 -13h-250q-19 0 -31.5 13t-12.5 32v227q0 20 12.5 32.5t31.5 12.5h250q19 0 32 -12.5t13 -32.5v-227z
M192 704h134v-134h-134v134zM378 352h-244q-36 0 -61 -25.5t-25 -64.5v-220q0 -37 25.5 -63.5t60.5 -26.5h244q36 0 61 25.5t25 64.5v220q2 38 -24 64t-62 26zM422 45q0 -19 -12.5 -32t-31.5 -13h-244q-19 0 -31.5 13t-12.5 32v221q0 19 12.5 31.5t31.5 12.5h244
q19 0 31.5 -12.5t12.5 -31.5v-221zM192 227h131v-131h-131v131zM634 426h249q38 0 64 26.5t26 62.5v227q0 38 -26.5 64t-63.5 26h-249q-38 0 -64 -26.5t-26 -63.5v-227q0 -38 26.5 -63.5t63.5 -25.5zM589 742q0 20 12.5 32.5t32.5 12.5h249q19 0 32 -12.5t13 -32.5v-227
q0 -19 -13 -32t-32 -13h-249q-20 0 -32.5 13t-12.5 32v227zM701 704h134v-134h-134v134zM573 179h137q10 0 16.5 6.5t6.5 16.5v137q0 10 -6.5 16.5t-16.5 6.5h-137q-10 0 -16.5 -6.5t-6.5 -16.5v-137q0 -10 6.5 -16.5t16.5 -6.5zM886 333v-39q0 -9 8 -17t18 -8h38q10 0 18 8
t8 17v39q0 9 -8 17t-18 8h-38q-10 0 -18 -7t-8 -18zM582 -48h48q10 0 16.5 6.5t6.5 15.5v48q0 10 -6.5 16.5t-16.5 6.5h-48q-9 0 -15.5 -6.5t-6.5 -16.5v-48q0 -9 6.5 -15.5t15.5 -6.5zM944 192h-99q-12 0 -20.5 -8.5t-8.5 -20.5v-45h-48q-14 0 -23 -8.5t-9 -23.5v-99
q0 -12 8.5 -20.5t20.5 -8.5l179 -3q12 0 20.5 8.5t8.5 20.5v179q0 12 -8.5 20.5t-20.5 8.5z" />
    <glyph glyph-name="saoyisao" unicode="&#xe62e;" 
d="M864 848h-698q-35 0 -59 -26.5t-24 -63.5v-208q0 -10 6.5 -17.5t16.5 -7.5q9 0 15.5 7t6.5 18v208q0 18 11 30t27 12h698q17 0 27.5 -12t10.5 -30v-208q0 -10 6.5 -17.5t16.5 -7.5t16 7t6 18v208q0 36 -24.5 63t-58.5 27zM925 214q-10 0 -16.5 -6.5t-6.5 -18.5v-179
q0 -18 -10.5 -30t-27.5 -12h-698q-16 0 -27 12t-11 30v182q0 10 -6.5 18t-15.5 8q-10 0 -16.5 -7t-6.5 -19v-179q0 -38 24.5 -64t58.5 -26h698q35 0 59 26.5t24 63.5v179q0 10 -6.5 16t-15.5 6zM922 352q9 0 15.5 6.5t6.5 16t-6.5 16t-15.5 6.5h-820q-9 0 -15.5 -6.5
t-6.5 -16t6.5 -16t15.5 -6.5h820z" />
    <glyph glyph-name="arrowtop" unicode="&#xe62f;" 
d="M966 227l-435 432q-7 7 -17.5 7t-17.5 -7l-442 -432q-7 -7 -7 -17.5t7.5 -17.5t17.5 -7t18 7l425 416l416 -416q7 -7 17.5 -7t18 7t7.5 17.5t-8 17.5z" />
    <glyph glyph-name="arrowdown" unicode="&#xe630;" 
d="M966 573q-7 7 -17.5 7t-17.5 -7l-416 -416l-425 416q-8 7 -18 7t-17.5 -7t-7.5 -17.5t7 -17.5l442 -432q7 -8 17.5 -8t17.5 8l435 432q15 20 0 35z" />
    <glyph glyph-name="arrowright" unicode="&#xe631;" 
d="M762 406l-432 436q-8 7 -18 7t-17.5 -7.5t-7.5 -17.5t7 -18l416 -416l-416 -425q-7 -7 -7 -17.5t7.5 -18t17.5 -7.5t18 8l432 441q7 7 7 17.5t-7 17.5z" />
    <glyph glyph-name="arrowleft" unicode="&#xe632;" 
d="M730 -35l-416 425l416 416q7 8 7 18t-7.5 17.5t-17.5 7.5t-18 -7l-432 -436q-7 -7 -7 -17.5t7 -17.5l432 -441q8 -8 18 -8t17.5 7.5t7.5 18t-7 17.5z" />
    <glyph glyph-name="camera" unicode="&#xe633;" 
d="M512 608q-94 0 -159 -65t-65 -159t65 -159t159 -65t159 65t65 159t-65 159t-159 65zM512 208q-72 0 -124 52t-52 124t52 124t124 52t124 -52t52 -124t-52 -124t-124 -52zM768 525q0 -21 15 -36t36 -15t36 15t15 36t-15 36t-36 15t-36 -15t-15 -36zM864 672h-96l-22 67
q-5 12 -17.5 20.5t-24.5 8.5h-384q-14 0 -25.5 -8t-16.5 -21l-22 -67h-96q-41 0 -68.5 -27.5t-27.5 -68.5v-448q0 -40 28.5 -68t67.5 -28h704q41 0 68.5 27.5t27.5 68.5v448q0 41 -27.5 68.5t-68.5 27.5zM912 128q0 -19 -14.5 -33.5t-33.5 -14.5h-704q-19 0 -33.5 14.5
t-14.5 33.5v448q0 19 14.5 33.5t33.5 14.5h131l10 32l22 64h378l22 -64l10 -32h131q19 0 33.5 -14.5t14.5 -33.5v-448z" />
    <glyph glyph-name="calendar" unicode="&#xe634;" 
d="M945 -92h-851q-20 0 -34 14t-14 33v710q0 20 14 34t34 14h95v46q0 32 21 64t49 32t49 -32t21 -64v-47h380v48q0 31 21 63t49 32t49 -32t21 -63v-48h96q20 0 33.5 -14t13.5 -34v-709q0 -19 -13.5 -33t-33.5 -14zM923 522l-812 2v-499q0 -20 14 -33.5t33 -13.5h718
q19 0 33 13.5t14 33.5v497v0zM520 311h196v-157h-196v157z" />
    <glyph glyph-name="trash" unicode="&#xe608;" 
d="M896 608h64v32h32v32q0 53 -37.5 90.5t-90.5 37.5h-133q-10 42 -44.5 69t-78.5 27h-192q-44 0 -78.5 -27t-44.5 -69h-133q-53 0 -90.5 -37.5t-37.5 -90.5v-32h32v-32h64v-608q0 -53 37.5 -90.5t90.5 -37.5h512q53 0 90.5 37.5t37.5 90.5v608zM416 832h192q36 0 55 -32
h-302q19 32 55 32zM832 0q0 -26 -19 -45t-45 -19h-512q-27 0 -47.5 19t-20.5 45l4 608h640v-608zM864 736q26 0 45 -19t19 -45h-76h-160h-360h-160h-76q0 26 19 45t45 19h704zM320 64q13 0 22.5 9.5t9.5 22.5v352q0 13 -9.5 22.5t-22.5 9.5t-22.5 -9.5t-9.5 -22.5v-352
q0 -13 9.5 -22.5t22.5 -9.5zM512 64q13 0 22.5 9.5t9.5 22.5v352q0 13 -9.5 22.5t-22.5 9.5t-22.5 -9.5t-9.5 -22.5v-352q0 -13 9.5 -22.5t22.5 -9.5zM704 64q13 0 22.5 9.5t9.5 22.5v352q0 13 -9.5 22.5t-22.5 9.5t-22.5 -9.5t-9.5 -22.5v-352q0 -13 9.5 -22.5t22.5 -9.5z
" />
    <glyph glyph-name="success" unicode="&#xe66a;" horiz-adv-x="1215" 
d="M1206 822q-256 -227 -614 -767l-117 -183q-148 184 -475 511l109 110l293 -256q153 154 285 278.5t211 191t134 113.5t79 61l21 14q5 0 12 -2t26.5 -19.5t35.5 -51.5z" />
    <glyph glyph-name="xinjian" unicode="&#xe613;" 
d="M864 416h-320v320h-64v-320h-320v-64h320v-320h64v320h320v64z" />
    <glyph glyph-name="xiaoxi" unicode="&#xe625;" 
d="M903 122q-2 31 -23 73.5t-37.5 65.5t-33.5 43v187q0 85 -52 153t-134 92q-4 42 -36.5 71.5t-75.5 29.5q-45 0 -77 -29t-36 -72q-83 -23 -134.5 -90.5t-51.5 -154.5v-187q-17 -20 -33.5 -43t-37.5 -65.5t-22 -73.5l-1 -20h785v20v0zM161 141q9 34 35.5 75.5t49.5 67.5l5 6
v201q0 77 47.5 135.5t123.5 74.5l15 3v21q0 31 21.5 52t52.5 21q30 0 51.5 -21.5t21.5 -51.5v-21l16 -3q74 -16 122 -75.5t48 -134.5v-201l5 -6q23 -26 50 -67.5t35 -75.5h-699v0zM371 53q6 -47 40 -80.5t81 -38.5l23 -1q52 0 92 34.5t47 85.5l2 22h-288l3 -22v0zM609 36
q-11 -28 -36.5 -46t-57.5 -18h-6q-32 0 -57.5 18t-36.5 46h194v0zM609 36z" />
    <glyph glyph-name="shanchu1" unicode="&#xe614;" 
d="M781 186l-199 204l199 199q14 14 14 35t-14.5 35.5t-35 14.5t-35.5 -15l-192 -205l-204 199q-15 14 -36.5 14t-40.5 -14q-15 -15 -15 -36.5t15 -40.5l198 -198l-198 -199q-15 -14 -15 -35t14.5 -35.5t35.5 -14.5t35 15l199 198l198 -198q14 -15 36 -15t41 15
q19 19 19 40.5t-19 36.5z" />
    <glyph glyph-name="qita" unicode="&#xe6e7;" 
d="M512 831q-91 0 -173.5 -35.5t-142.5 -95.5t-95.5 -142.5t-35.5 -173.5t35.5 -173.5t95.5 -142.5t142.5 -95.5t173.5 -35.5t173.5 35.5t142.5 95.5t95.5 142.5t35.5 173.5t-35.5 173.5t-95.5 142.5t-142.5 95.5t-173.5 35.5zM310 329q-23 0 -39 16t-16 39t16 39t39 16
t39 -16t16 -39t-16 -39t-39 -16zM512 329q-23 0 -39 16t-16 39t16 39t39 16t39 -16t16 -39t-16 -39t-39 -16zM714 329q-23 0 -39 16t-16 39t16 39t39 16t39 -16t16 -39t-16 -39t-39 -16z" />
    <glyph glyph-name="add" unicode="&#xe600;" 
d="M0 810q0 36 25 61t61 25h852q36 0 61 -25t25 -61v-852q0 -36 -25 -61t-61 -25h-852q-36 0 -61 25t-25 61v852zM555 341h235q17 0 29.5 12.5t12.5 30.5t-12.5 30.5t-29.5 12.5h-235v235q0 17 -12.5 29.5t-30.5 12.5t-30.5 -12.5t-12.5 -29.5v-235h-235q-17 0 -29.5 -12.5
t-12.5 -30.5t12.5 -30.5t29.5 -12.5h235v-235q0 -17 12.5 -29.5t30.5 -12.5t30.5 12.5t12.5 29.5v235z" />
    <glyph glyph-name="caretdown" unicode="&#xe601;" 
d="M768 512l-256 -256l-256 256h512z" />
    <glyph glyph-name="down" unicode="&#xe604;" 
d="M80 612q-9 -9 -9 -21t9 -21l431 -431l434 433q7 8 7 19t-7 19l-5 4q-9 9 -22 9t-22 -9l-385 -385l-384 384q-9 10 -23 10t-23 -10z" />
    <glyph glyph-name="home" unicode="&#xe60a;" horiz-adv-x="1122" 
d="M922 337l-345 370q-7 7 -15 7q-9 0 -16 -7l-345 -370h1l-28 -30v-407q32 -1 71 -1h178v6v272q0 30 19 50.5t46 20.5h150q26 0 45.5 -20.5t19.5 -50.5v-272q0 -3 -1 -6h176h35.5t26.5 1h9v407l-28 30h1v0zM642 863q-34 33 -81 33t-80 -33l-453 -454q26 -52 82 -67l429 427
l7 7q8 6 15 6q8 0 16 -6l7 -7l429 -427q55 15 82 66l-453 455v0z" />
    <glyph glyph-name="homework" unicode="&#xe60e;" horiz-adv-x="1343" 
d="M592 786q-166 41 -255 52q-126 16 -201 -10v-739q51 10 104.5 11.5t115.5 -7t101.5 -16t112.5 -23.5l22 -5v737v0v0zM985 282q-10 132 -15 200q-7 1 -27 1.5t-28 1.5q-3 -54 -3.5 -158t-3.5 -156q-13 30 -31 49.5t-53 30.5q-14 -15 -24 -26q39 -45 65 -141l11 -111
q5 -10 17 -35.5t19 -38.5q77 2 194 6q1 3 21 46q29 212 28 330q-10 2 -25 7t-26 7q-1 -4 -5 -27t-5 -27q-3 73 -3 87q-32 7 -49 11l-4 -24q-3 31 -4 37q-5 1 -44 6q-1 -5 -5 -76v0v0v0v0v0zM1189 779l93 -18v-836q-8 1 -47 7.5t-61 9.5v1q12 89 19 167q11 107 10 172v40
l-38 8q-14 3 -24 7v492q-76 25 -202 10q-88 -12 -255 -53v-737l22 5q90 19 111 23l1 -3l11 -116l4 -8l5 -11q-53 -7 -123 -21v-27q-19 -5 -37.5 -10.5t-21.5 -7t-14 -1.5t-13.5 1.5t-21.5 7t-37 10.5v27q-50 10 -94.5 17t-85.5 10.5t-71.5 6t-67 1t-56 -2t-54.5 -5t-46.5 -6
t-47.5 -7t-44 -7.5v836l84 17v85l16 6q88 37 240 19q84 -10 279 -58l16 -4l16 4q195 48 279 58q152 18 241 -19l15 -6v-84v0v0zM546 710v-31q-141 32 -208 41q-101 13 -155 -2v30q60 14 159 1q70 -9 204 -39v0v0v0zM546 196v-31q-133 31 -208 41q-99 13 -155 -2v31
q60 14 159 0q75 -9 204 -39v0v0v0zM546 274v-31q-140 32 -208 41q-100 13 -155 -3v31q60 14 159 1q73 -9 204 -39v0v0v0zM546 540v-31q-141 32 -208 41q-102 12 -155 -3v31q60 15 159 1q77 -10 204 -39v0v0v0v0zM546 624v-30q-144 32 -208 40q-101 13 -155 -2v31
q58 14 159 1q71 -9 204 -40v0v0v0zM743 540v-31q69 17 126 29v1h5q43 8 63 11q95 13 146 -3v31q-56 15 -150 1q-71 -10 -190 -39v0v0v0zM743 710v-30q129 31 194 40q96 13 146 -3v31q-56 14 -150 1q-72 -10 -190 -39v0v0v0zM743 625v-31q130 32 194 40q96 13 146 -3v31
q-56 15 -150 2q-69 -10 -190 -39v0v0z" />
    <glyph glyph-name="times" unicode="&#xe60f;" 
d="M855 681l-46 46l-297 -298l-297 298l-46 -46l298 -297l-298 -297l46 -46l297 298l297 -298l46 46l-298 297z" />
    <glyph glyph-name="class" unicode="&#xe616;" horiz-adv-x="1025" 
d="M989 782h-954q-14 0 -24.5 -10.5t-10.5 -24.5v-620q0 -15 10.5 -25.5t24.5 -10.5h222l-19 71h-167v549h882v-549h-159q63 -26 116 -71h79q14 0 24.5 10.5t10.5 25.5v620q0 14 -10.5 24.5t-24.5 10.5v0zM754 102q-7 2 -11 4q-6 2 -8 3q-11 3 -21 6q-2 1 -5 1h-6
q-3 0 -5 -1q-30 -17 -72 -17t-73 17q-2 1 -5 1h-4h-3q-10 -3 -22 -7q-3 -1 -10 -3q-3 -1 -10 -3q-13 -5 -27 -12v0v0q-19 -9 -33 -17l-11 17v0l-11 18l-85 135q-9 15 -26 8t-12 -25l17 -65v0l19 -71v0l30 -109q0 -3 2 -6v-5q0 -5 3.5 -8t7.5 -3h505q4 0 7.5 3t3.5 8v39
q0 5 -3 8q-58 56 -132 84v0zM501 285q0 -9 6 -15t15 -6v0q3 -44 33.5 -79t70 -35t70 35t33.5 79h1q8 0 14 6t6 15q0 14 -12 20q6 20 6 41q0 52 -34.5 89t-84 37t-84 -37t-34.5 -89q0 -21 6 -41q-12 -6 -12 -20v0z" />
    <glyph glyph-name="consult" unicode="&#xe617;" 
d="M512 -128q139 0 257 68.5t186.5 186.5t68.5 257t-68.5 257t-186.5 186.5t-257 68.5t-257 -68.5t-186.5 -186.5t-68.5 -257t68.5 -257t186.5 -186.5t257 -68.5zM684 242q-9 7 -21 11.5t-25 7.5t-23 8q-12 4 -19 10.5t-10 13t-3.5 13t0.5 13.5q1 5 3 8q2 4 4.5 6.5l5.5 5.5
t8 6q3 3 6 8.5t5 10.5l4 14q5 1 8 4q3 4 6 9.5t4 14.5q1 7 0 11.5t-3 7.5q-2 4 -4 6q0 17 -2 34q-3 15 -8 32t-16 30q-10 13 -30 23.5t-46 10.5q-10 0 -20 -2q-11 -1 -21.5 -5.5t-20.5 -12t-18 -19.5q-9 -14 -13.5 -29t-6.5 -29q-2 -17 -1 -33q-4 -4 -6 -9q-2 -4 -2 -10
q-1 -7 1.5 -14t5.5 -11t5 -6q3 -2 6 -3q3 -8 4.5 -13.5t4.5 -11t6 -8.5q8 -6 14 -12t7 -16v-12t-2 -11t-7 -10t-14 -11q-12 -8 -26 -11q-16 -4 -29 -9q-15 -5 -25 -13t-13 -25q-4 -27 -1.5 -45t6.5 -21q3 -2 13 -4q9 -3 24 -5q14 -2 31 -4q16 -2 35 -3q17 -2 34 -3
q16 -1 29 -1t29 1q17 1 35 2.5t35.5 4l31.5 4.5q15 3 25 6t12 6q3 4 4.5 13t1.5 19.5t-1.5 20.5t-3.5 18q-4 11 -13 18zM391 288q15 5 28 13q6 4 7.5 7t2.5 8q-1 6 -1.5 8.5t-1.5 4.5t-3 4t-6 5t-6.5 9.5t-4.5 12.5q-3 8 -4 15q-3 1 -6 4q-3 2 -6 6.5t-5 13.5q-3 8 -2.5 15
t2.5 12t6 10q0 18 3 35q2 15 7 32t15 31q8 11 19 22t21 17q-3 9 -5 17q-2 7 -9 16q-10 12 -30 22.5t-45 10.5q-10 0 -21 -2q-10 -1 -20.5 -5.5t-20.5 -12t-18 -19.5q-9 -13 -13.5 -28.5t-6.5 -29.5q-2 -16 -2 -32q-3 -4 -5 -9t-2.5 -11t2 -13.5t5 -11.5t5.5 -6t6 -3
q2 -7 4 -13t4.5 -11.5t6.5 -8.5q7 -6 13 -11q6 -6 7 -16q1 -7 1 -12.5t-2.5 -11t-7 -10.5t-13.5 -11q-12 -7 -26.5 -11t-29 -9t-24.5 -13t-13 -24q-4 -28 -1.5 -45.5t6.5 -21.5q3 -2 15 -5q11 -2 28 -5t37 -5t40 -3q1 1 1.5 2l0.5 1q1 4 1 10t1 11q3 18 13 28t24 16t29 11z
M834 639h-158q-7 0 -12 -5t-5 -12v-103q0 -7 5 -11.5t12 -4.5h24v-26q0 -8 8 -8q3 0 6 2l31 32h89q7 0 11.5 4.5t4.5 11.5v103q0 7 -4.5 12t-11.5 5zM718 556q-10 0 -10 10.5t10 10.5t10 -10.5t-10 -10.5zM755 556q-4 0 -7 3t-3 7.5t3 7.5t7 3t7 -3t3 -7q0 -11 -10 -11z
M791 556q-4 0 -7 3t-3 7.5t3 7.5t7 3t7 -3t3 -7.5t-3 -7.5t-7 -3z" />
    <glyph glyph-name="contract" unicode="&#xe618;" 
d="M512 845q-94 0 -179.5 -36.5t-147 -98t-98 -147t-36.5 -179.5t36.5 -179.5t98 -147t147 -98t179.5 -36.5t179.5 36.5t147 98t98 147t36.5 179.5t-36.5 179.5t-98 147t-147 98t-179.5 36.5v0zM711 323q14 0 23.5 -9.5t9.5 -23.5t-9.5 -24t-23.5 -10h-165v-157
q0 -14 -10 -24t-24 -10t-24 10t-10 24v157h-165q-14 0 -23.5 10t-9.5 24t9.5 23.5t23.5 9.5h165v74h-165q-14 0 -23.5 10t-9.5 24t9.5 23.5t23.5 9.5h129l-128 128q-10 10 -10 24t10 23.5t24 9.5t24 -9l152 -153l152 153q10 9 24 9t23.5 -9.5t9.5 -23.5t-10 -24l-127 -128
h125q14 0 23.5 -9.5t9.5 -23.5t-9.5 -24t-23.5 -10h-165v-74h165v0z" />
    <glyph glyph-name="coursebundle" unicode="&#xe619;" horiz-adv-x="1025" 
d="M876 654q0 23 -13 36t-26 15l-13 1h-624h-5.5t-12.5 -3t-16 -8t-12.5 -15.5t-5.5 -25.5v-52h728v52v0v0v0zM720 811h-416q-2 0 -5.5 -0.5t-12.5 -3.5t-16 -7.5t-12.5 -15.5t-5.5 -26h520q0 45 -44 52q-5 1 -8 1v0v0v0zM980 602l-31 31v-84h-874v84l-31 -31
q-4 -4 -14.5 -14t-13 -13t-8.5 -12t-7 -17t-1 -20.5t4 -28.5q6 -36 41.5 -244t38.5 -226q3 -15 11 -25.5t16 -15.5t18 -8t13.5 -3h5.5h728h6t13.5 3t17.5 8t16 15.5t11 25.5q3 19 38.5 226.5t41.5 243.5q4 16 4 28.5t-1 20.5t-7 17t-8.5 12t-13 13t-14.5 14v0v0v0zM720 320
q0 -3 -0.5 -6.5t-3 -12.5t-7.5 -15.5t-16 -12.5t-25 -6h-312q-23 0 -36 13t-15 26l-1 14v104h73v-84h270v84h73v-104v0v0v0z" />
    <glyph glyph-name="course" unicode="&#xe61a;" 
d="M870 566v-530q0 -6 -1 -11t-4.5 -9.5t-5.5 -7.5t-8.5 -8.5t-8.5 -7t-11 -8t-12 -8.5q-17 -11 -34 -0.5t-17 30.5v518q0 19 -16 28q-6 2 -105 54.5t-195 103l-96 50.5q-1 0 -5 2t-8 3.5t-11 2.5t-13 1t-15 -2t-18 -6q-45 -24 -57 -46l419 -230q18 -9 18 -26v-553
q0 -21 -19 -30q-8 -4 -17 -4q-11 0 -20 5q-3 2 -104.5 64.5t-204.5 125.5t-115 70q-10 6 -18 15.5t-9 17.5l-5 527q0 30 14 53q29 45 104 77t120 9l460 -233q18 -10 18 -37v0z" />
    <glyph glyph-name="educational" unicode="&#xe61b;" horiz-adv-x="1132" 
d="M333 305v-228h431v228h-431v0zM697 142h-296v105h296v-105v0zM518 835q0 22 -15 38.5t-38 16.5h-115q-23 0 -38.5 -16.5t-15.5 -38.5v-55l222 -2v57v0zM857 504v221q0 22 -17 38t-40 16h-169q-23 0 -40.5 -16t-17.5 -38v-221h284v0zM1023 504v64q0 22 -15 37.5t-37 15.5
h-9q-22 0 -36 -16t-14 -39v-62h111v0zM74 615h167v-111h-167v111v0zM296 726h222v-222h-222v222v0zM241 726q0 22 -16.5 37.5t-39.5 15.5h-57q-23 0 -38.5 -15.5t-15.5 -37.5v-54l167 1v53v0zM93 504h-86v-585h1078v525v60h-74h-918v0zM1023 442v-464h-949v467h16h3h916h14
v-3v0z" />
    <glyph glyph-name="message" unicode="&#xe61c;" 
d="M750 417q-33 70 -55 113.5t-49.5 87t-52 67t-57 43t-69.5 26t-85 5.5q-23 0 -38 7t-20 15t-17 11.5t-29 -3.5q-17 -6 -23.5 -16t-6 -20t-6 -25t-24.5 -30q-32 -26 -54 -52.5t-36 -52.5t-19.5 -59.5t-6 -65.5t7 -78t17 -88.5t25.5 -106.5q8 -31 4.5 -57t-13.5 -41
t-19 -35.5t-11.5 -40.5t8.5 -55q15 -40 81.5 -62t170.5 -15t210 46q81 30 150 74.5t112 90t63 89t10 73.5q-11 30 -27.5 47t-34.5 24.5t-36.5 14t-37 23.5t-32.5 46v0zM559 3q-56 -21 -113.5 -31.5t-100.5 -10.5t-78.5 5t-54.5 12t-22 14q-3 10 4 28t28.5 42.5t54.5 50
t86.5 54.5t118.5 53t123.5 37.5t100 15.5t73.5 -2.5t49 -13.5t21 -21q2 -7 -8 -25.5t-34 -45t-57 -55t-83.5 -57.5t-107.5 -50v0zM495 182q-139 -52 -222 -123q25 -23 67 -27t88 13q59 22 90.5 65.5t17.5 83.5l-0.5 0.5l-0.5 0.5q-21 -6 -40 -13v0z" />
    <glyph glyph-name="organization" unicode="&#xe61d;" horiz-adv-x="1025" 
d="M169 239q18 -74 49.5 -112t105.5 -71q40 -17 81.5 -41.5t65.5 -37.5t41 -13t40 11.5t64.5 34.5t80.5 40q30 14 46.5 23.5t25 23t10.5 23.5t6 36t10 48l-283 -137l-343 172v0zM999 490l-426 238q-25 14 -61 14t-61 -14l-426 -238q-25 -14 -25 -34t25 -34l426 -239
q25 -14 61 -14t61 14l275 154l-299 70q-18 -4 -37 -4q-40 0 -68.5 17t-28.5 41t28.5 41t68.5 17q31 0 56 -10.5t35 -27.5l317 -104l79 45q25 14 25 34t-25 34v0zM869 37q-2 -10 15 -20t35.5 -5t21.5 31q12 128 7.5 202t-16.5 103l-12 29l-72 -40l12 -19q41 -86 9 -281v0z
" />
    <glyph glyph-name="phone" unicode="&#xe61e;" 
d="M512 896q-138 0 -256 -69t-187 -187t-69 -256t69 -256t187 -187t256 -69t256 69t187 187t69 256t-69 256t-187 187t-256 69v0zM685 90q-56 0 -155 49.5t-159 103.5q-56 67 -104.5 163t-48.5 151q3 4 8.5 12t20.5 28t29 35t30 27.5t27 12.5q19 0 54.5 -30t57 -68t3.5 -56
q-12 -14 -31 -26.5t-29 -22.5t-10 -27q0 -18 12.5 -40t25.5 -36t38.5 -39.5t39.5 -38.5t36 -25.5t40 -12.5q17 0 27 10t22.5 31t26.5 35q18 18 56 -3.5t68 -56.5t30 -55q6 -39 -102 -113q-13 -9 -13 -8v0z" />
    <glyph glyph-name="pic" unicode="&#xe61f;" horiz-adv-x="1106" 
d="M1071 -25q0 -26 -18 -44.5t-43 -18.5h-942q-26 0 -44 18.5t-18 44.5v857q0 26 18 44.5t44 18.5h942q25 0 43 -18.5t18 -44.5v-857v0zM1024 802q0 20 -13.5 34t-32.5 14h-879q-19 0 -32.5 -14t-13.5 -34v-798q0 -19 13.5 -33t32.5 -14h879q19 0 32.5 14t13.5 33v798v0v0z
M273 727q-42 0 -72 -31t-30 -74.5t30 -74.5t72 -31t72 31t30 74.5t-30 74.5t-72 31v0zM329 622q0 -24 -16.5 -40.5t-39.5 -16.5t-39.5 16.5t-16.5 40t16.5 40.5t39.5 17t39.5 -17t16.5 -40v0zM127 164l197 153l107 -113l266 274l249 -257l32 36l-281 289l-266 -271l-103 106
l-228 -177l27 -40v0zM962 182h-371v-48h371v48v0zM962 72h-583v-48h583v48v0v0z" />
    <glyph glyph-name="report" unicode="&#xe621;" 
d="M3 809h87v-806h888v-90h-975v896v0v0zM136 450l50 -79l6 3l1 1q2 1 5 2q27 14 61.5 20.5t56.5 7.5t62 1q24 0 47.5 -0.5t46.5 2.5t45 7t43.5 14.5t41.5 24.5t39.5 36t37.5 50t35 67t32 87l68 -19l-55 213l-168 -151l61 -17q-11 -37 -25 -67t-26 -52t-28.5 -38.5
t-29 -27.5t-31.5 -18.5t-31 -11.5t-33.5 -5.5t-33.5 -2t-35 0.5q-48 0 -75 -1t-70.5 -10.5t-81.5 -27.5q-1 -1 -8 -4q-5 -3 -8 -5v0v0zM694 32h164v560l-164 -174v-386v0zM453 32h164v204h-164v-204v0zM221 32h164v292h-164v-292v0z" />
    <glyph glyph-name="setting" unicode="&#xe622;" 
d="M922 272q2 -11 -1 -26t-9 -30t-15 -27.5t-19.5 -18t-18.5 -5.5t-17 4q-9 2 -22 4.5t-27 1t-27.5 -6t-23.5 -14.5q-21 -22 -24.5 -50.5t7.5 -53.5q9 -18 -2 -35q-5 -7 -16.5 -14.5t-25.5 -14t-29 -10t-26 -3.5q-8 0 -15 6.5t-10 13.5h-1q-9 27 -32.5 47t-54.5 20
q-30 0 -54 -20t-34 -47q-4 -10 -13 -15t-20 -5q-12 0 -27.5 4.5t-31 11t-27.5 15.5t-19 18q-4 6 -4.5 14.5t6.5 23.5q10 20 8 46t-23 48q-12 13 -29.5 17t-33.5 3q-19 -1 -38 -7q-12 -3 -25 2q-9 3 -17.5 16t-15 28.5t-10 31.5t-2.5 27q3 19 18 25q26 10 47.5 34.5
t21.5 54.5t-21.5 53t-47.5 34q-8 2 -13.5 12.5t-5.5 20.5q0 12 3.5 26t9.5 27t13.5 24t16.5 17q7 4 13.5 3t14.5 -3q26 -11 55 -7t51 25q10 11 15 26.5t6.5 30.5t0 27t-2.5 18q-2 5 -3 12t1 12q6 13 19.5 22t29.5 15t31 9.5t23 3.5q12 0 18.5 -7.5t9.5 -15.5q9 -24 31 -42
t52 -18q31 0 55 17t34 44q3 7 10.5 14.5t15.5 7.5q12 0 26.5 -3.5t29 -10t26 -16t18.5 -21.5q5 -7 3 -15l-3 -12q-12 -25 -7.5 -53.5t25.5 -49.5t52 -23.5t57 10.5q7 4 17.5 3t17.5 -8q13 -12 23 -37t14 -51q1 -15 -5.5 -23.5t-13.5 -10.5q-27 -10 -46.5 -34t-19.5 -55
q0 -30 16.5 -52.5t42.5 -32.5q6 -3 11 -7q9 -8 13 -20v0v0zM512 193q40 0 75 15t61 41t41 61t15 74.5t-15 74.5t-41 61t-61 41t-74.5 15t-74.5 -15t-61 -41t-41 -61t-15 -74.5t15 -74.5t41 -61t61 -41t74 -15v0v0z" />
    <glyph glyph-name="teacher" unicode="&#xe623;" 
d="M948 -111l-9 -17h-24h-831h-26v27q2 102 24 185q32 121 103 182l8 6h10l117 2v-55l-107 1q-54 -51 -80 -149q-17 -66 -21 -147h784q2 62 -31 163q-28 85 -74 134h-122v53h140l10 -4q60 -56 96 -167q42 -131 33 -214v0v0zM512 -41l-70 53l45 181l-17 28l1 29q38 2 75 0
l1 -29l-17 -28l51 -181l-69 -53v0v0zM714 486q-27 -92 -75 -143q-51 -53 -135 -71h-5h-4q-78 13 -131 67q-53 53 -80 146q-23 12 -35 41q-14 32 -13 81v12l11 7q5 4 11 7q-8 50 -8.5 92t13 79t42.5 64q20 15 57 18.5t71.5 0.5t76.5 3q33 5 60.5 5t48.5 -2t37.5 -12.5
t27.5 -18.5t20 -28t14.5 -33t10 -42t7 -46t6.5 -53q2 -20 3 -31q3 -2 4 -3l11 -7v-12q1 -49 -12 -80q-12 -28 -34 -41v0v0zM688 583l-3 11l-7 -1l-4 21q-1 4 -6 56t-8 60q-4 -2 -8 -2.5t-9 0.5t-8 2t-9 3.5t-8 4t-9 5t-8 4.5l-10 -30l-15 2l2 19l-16 -26l-15 3l15 38
q-36 -25 -87.5 -35.5t-90 -7t-47.5 15.5q-1 -1 -5 -12q-2 -7 -5.5 -58t-5.5 -58l-1 -6l-1 1q-1 -5 -2 -8q-5 3 -31 -1q1 -24 8 -39q6 -16 18 -20l13 -4l3 -13q24 -88 71 -135q40 -41 99 -52q66 15 105 56q43 44 67 132l3 12l12 5q11 3 18 20q6 15 8 38q-14 0 -23 -1v0v0z
" />
    <glyph glyph-name="teaching" unicode="&#xe624;" 
d="M799 794l-62 -154h-450l-62 154q-29 0 -50 -21t-21 -51v-778q0 -30 21 -51t50 -21h574q29 0 50 21t21 51v778q0 30 -21 51t-50 21v0zM696 691l46 103h-111l-37 102h-164l-37 -102h-111l46 -103h368v0z" />
    <glyph glyph-name="logo" unicode="&#xe626;" 
d="M945 379q0 -59 -40 -102v0l-332 -346q-20 -26 -51 -31v206q-1 6 -1 10q0 49 33 83v1l310 324l41 -43v0q40 -42 40 -102v0zM522 454q-1 6 -1 11q0 48 33 82v2l143 149l147 -154l-322 -336v246v0zM337 718l170 178l171 -178l-171 -177l-170 177v0zM461 547q32 -34 32 -82
v-11v-246l-323 336l147 154l143 -149l1 -2v0zM461 199q32 -34 32 -83v-10v-206q-24 4 -41 21h-1l-341 356v0q-40 43 -40 102.5t40 101.5v0l40 43l310 -324l1 -1v0z" />
    <glyph glyph-name="iconbanji" unicode="&#xe627;" horiz-adv-x="1083" 
d="M1059 152h-71v628q0 10 -6.5 16.5t-16.5 6.5h-353v70q0 10 -6.5 16.5t-17.5 6.5h-94q-11 0 -17.5 -6.5t-6.5 -16.5v-70h-352q-11 0 -17.5 -6.5t-6.5 -16.5v-628h-70q-11 0 -17.5 -6.5t-6.5 -17t6.5 -17t17.5 -6.5h374l-158 -195q-6 -7 -5 -17.5t10 -15.5t14 -5
q12 0 19 10l181 223h59v-163q0 -10 6 -16.5t17 -6.5t17.5 6.5t6.5 16.5v163h58l182 -223q9 -10 18 -10q5 0 14 5q8 5 9 15.5t-4 17.5l-157 195h374q10 0 16.5 6.5t6.5 17t-6.5 17t-16.5 6.5zM141 756h353h94h353v-604h-800v604zM518 849h47v-46h-47v46zM565 314v280
q0 10 -6.5 16.5t-17.5 6.5t-17 -6.5t-6 -16.5v-280q0 -10 6 -16.5t17 -6.5t17.5 6.5t6.5 16.5zM729.5 291q10.5 0 17 6.5t6.5 16.5v186q0 11 -6.5 17.5t-17 6.5t-17 -6.5t-6.5 -17.5v-186q0 -10 6.5 -16.5t17 -6.5zM352.5 431q-10.5 0 -17 -6.5t-6.5 -17.5v-93
q0 -10 6.5 -16.5t17 -6.5t17 6.5t6.5 16.5v93q0 11 -6.5 17.5t-17 6.5z" />
    <glyph glyph-name="iconkebiao" unicode="&#xe628;" horiz-adv-x="1056" 
d="M965 794h-173v61q0 13 -9 22t-21.5 9t-21.5 -9t-9 -22v-61h-386v61q0 13 -9 22t-21.5 9t-21.5 -9t-9 -22v-61h-193q-37 0 -64 -26.5t-27 -64.5v-729q0 -38 27 -65t64 -27h874q37 0 64 27t27 65v729q0 38 -27 64.5t-64 26.5v0v0zM995 -26q0 -13 -9 -22t-21 -9h-874
q-12 0 -21 9t-9 22v729q0 13 9 22t21 9h193v-81q0 -13 9 -22t21.5 -9t21.5 9t9 22v81h386v-81q0 -13 9 -22t21.5 -9t21.5 9t9 22v81h173q12 0 21 -9t9 -22v-729v0v0zM244 364h101v100h-101v-100v0v0zM487 364h102v100h-102v-100v0v0zM731 364h102v100h-102v-100v0v0z
M244 123h101v100h-101v-100v0v0zM487 123h102v100h-102v-100v0v0zM731 123h102v100h-102v-100v0v0z" />
    <glyph glyph-name="iconshangkejilu" unicode="&#xe629;" horiz-adv-x="1085" 
d="M425 767q-120 -11 -216 -78t-146 -172.5t-40 -224t78 -214t174 -145t225.5 -39t216 77.5t146.5 173t40 224q-2 13 -11.5 21t-21.5 6.5t-20.5 -11t-6.5 -21.5q9 -102 -34.5 -193t-126.5 -149t-186 -67.5t-195 33.5t-150.5 125t-67.5 184.5t34.5 193.5t126.5 149t186 67
q97 8 185 -30q12 -5 23.5 0t16.5 16t0 23t-16 17q-102 44 -214 34zM403 169q9 -9 22 -8.5t21 9.5l610 670q8 10 7.5 22.5t-9.5 20.5t-21.5 7.5t-21.5 -9.5l-609 -670l43 1l-161 160q-9 9 -21.5 9t-21.5 -9t-9 -21.5t9 -20.5z" />
  </font>
</defs>
</svg>
