<?xml version="1.0" encoding="UTF-8" standalone="no"?>
<svg width="48px" height="48px" viewBox="0 0 48 48" version="1.1" xmlns="http://www.w3.org/2000/svg" xmlns:xlink="http://www.w3.org/1999/xlink">
    <!-- Generator: Sketch 3.8.3 (29802) - http://www.bohemiancoding.com/sketch -->
    <title>btn_add</title>
    <desc>Created with Sketch.</desc>
    <defs></defs>
    <g id="线索管理_线索详情" stroke="none" stroke-width="1" fill="none" fill-rule="evenodd">
        <g id="问卷调查" transform="translate(-1787.000000, -899.000000)" fill="#1691E8">
            <g id="过往考试成绩（真实/模考）" transform="translate(223.000000, 694.000000)">
                <path d="M1564,209.009893 C1564,206.79529 1565.79405,205 1568.00989,205 L1607.99011,205 C1610.20471,205 1612,206.794052 1612,209.009893 L1612,248.990107 C1612,251.20471 1610.20595,253 1607.99011,253 L1568.00989,253 C1565.79529,253 1564,251.205948 1564,248.990107 L1564,209.009893 Z M1590,231 L1601.00838,231 C1602.10216,231 1603,230.104569 1603,229 C1603,227.88773 1602.10832,227 1601.00838,227 L1590,227 L1590,215.991617 C1590,214.89784 1589.10457,214 1588,214 C1586.88773,214 1586,214.891677 1586,215.991617 L1586,227 L1574.99162,227 C1573.89784,227 1573,227.895431 1573,229 C1573,230.11227 1573.89168,231 1574.99162,231 L1586,231 L1586,242.008383 C1586,243.10216 1586.89543,244 1588,244 C1589.11227,244 1590,243.108323 1590,242.008383 L1590,231 Z" id="btn_add"></path>
            </g>
        </g>
    </g>
</svg>