<?xml version="1.0" encoding="UTF-8"?>
<svg width="36px" height="36px" viewBox="0 0 36 36" version="1.1" xmlns="http://www.w3.org/2000/svg" xmlns:xlink="http://www.w3.org/1999/xlink">
    <!-- Generator: Sketch 40 (33762) - http://www.bohemiancoding.com/sketch -->
    <title>class</title>
    <desc>Created with Sketch.</desc>
    <defs></defs>
    <g id="Page-12" stroke="none" stroke-width="1" fill="none" fill-rule="evenodd">
        <g id="class" fill="#272636">
            <path d="M34.7521794,4 L1.24777907,4 C0.558191802,4 -1.27897692e-13,4.55819176 -1.27897692e-13,5.24707194 L-1.27897692e-13,27.0412578 C-1.27897692e-13,27.7315937 0.558191761,28.2897855 1.24777907,28.2897855 L9.0229079,28.2897855 L8.35178834,25.7941858 L2.49555813,25.7941858 L2.49555813,6.49559971 L33.5037348,6.49559971 L33.5037348,25.7941858 L27.9280146,25.7941858 C29.3945366,26.4078224 30.7708828,27.2486872 32.0087209,28.2897855 L34.7521794,28.2897855 C35.4411011,28.2897855 36,27.7315938 36,27.0412578 L36,5.24711356 C36,4.55823338 35.4411011,4 34.7521794,4 L34.7521794,4 Z M26.5055407,27.9148155 C26.3720239,27.8651106 26.2385071,27.81682 26.1035761,27.7713577 C26.0112373,27.740079 25.9189402,27.7088419 25.8251873,27.6804332 C25.5886837,27.6036922 25.3501004,27.5341054 25.1086055,27.4745012 C25.0524952,27.4439711 24.9885651,27.4276247 24.9232626,27.4276247 L24.7201174,27.4276247 C24.6561874,27.4276247 24.592299,27.4432225 24.5361886,27.473087 C23.8608265,27.8359532 22.9333214,28.0440897 21.9937124,28.0440897 C21.0527309,28.0440897 20.12664,27.8359532 19.449115,27.473087 C19.3930047,27.4432225 19.3304889,27.4262105 19.2658933,27.4262105 L19.118193,27.4262105 C19.0883285,27.4262105 19.0584639,27.4311602 19.0293897,27.4375241 C18.7651429,27.5000399 18.5045563,27.5753251 18.2453008,27.656267 C18.1331217,27.6889183 18.0216082,27.7273096 17.9100946,27.7656593 C17.7914685,27.8046745 17.6750468,27.8480155 17.559249,27.8920636 C17.2361051,28.0121039 16.9186595,28.144872 16.6054565,28.2890785 L16.6047494,28.2897856 L16.6047494,28.2897856 C16.2077761,28.4744631 15.8142967,28.6704125 15.4350839,28.8934812 L15.0551226,28.2897856 L15.0551226,28.2897856 L14.6623918,27.6662496 L11.6817227,22.9279003 C11.4835687,22.6139902 11.0872609,22.4932844 10.7478121,22.640236 C10.4083633,22.7886435 10.2286771,23.1636552 10.3245513,23.5215717 L10.9360666,25.7941859 L10.9360666,25.7941859 L11.6071862,28.2897856 L11.6071862,28.2897856 L12.6454562,32.148255 C12.664631,32.2200047 12.6965752,32.2860144 12.7349249,32.3478231 L12.7349249,32.525388 C12.7349249,32.7398051 12.9096614,32.9145416 13.1248273,32.9145416 L30.8631384,32.9145416 C31.0775972,32.9145416 31.2508779,32.7398052 31.2508779,32.525388 L31.2508779,31.1348166 C31.2508779,31.0297085 31.2089927,30.9302572 31.1337075,30.8564694 C29.7894303,29.5510827 28.2099389,28.5539492 26.5055407,27.9148155 L26.5055407,27.9148155 Z M17.6182709,21.4706121 C17.6182709,21.8910029 17.9392935,22.2304933 18.3341456,22.2304933 C18.3384298,22.2304933 18.3426724,22.2297862 18.3469149,22.2297862 C18.4946569,24.2289612 20.0698641,26.2288434 21.993754,26.2288434 C23.9169368,26.2288434 25.4921023,24.2290028 25.6398443,22.2297862 C25.644794,22.2297862 25.6490782,22.2304933 25.6533208,22.2304933 C26.0481728,22.2304933 26.3684468,21.8910445 26.3684468,21.4706121 C26.3684468,21.1609862 26.1937935,20.8960739 25.9445205,20.7788619 C26.0893509,20.3286483 26.1689202,19.8485285 26.1689202,19.3485683 C26.1689202,16.9026735 24.2997681,14.920552 21.9937539,14.920552 C19.6877398,14.920552 17.8185461,16.9026735 17.8185461,19.3485683 C17.8185461,19.8485285 17.8981154,20.3286483 18.0429874,20.7788619 C17.7930073,20.8960323 17.6182709,21.1609446 17.6182709,21.4706121 L17.6182709,21.4706121 Z" id="Shape"></path>
        </g>
    </g>
</svg>