<?xml version="1.0" encoding="UTF-8" standalone="no"?>
<svg width="21px" height="21px" viewBox="0 0 21 21" version="1.1" xmlns="http://www.w3.org/2000/svg" xmlns:xlink="http://www.w3.org/1999/xlink">
    <!-- Generator: Sketch 3.8.3 (29802) - http://www.bohemiancoding.com/sketch -->
    <title>Shape</title>
    <desc>Created with Sketch.</desc>
    <defs></defs>
    <g id="学员管理" stroke="none" stroke-width="1" fill="none" fill-rule="evenodd">
        <g id="nav_btn_index" transform="translate(-36.000000, -99.000000)" fill="#FFFFFF">
            <g id="线索管理">
                <g transform="translate(36.000000, 99.000000)">
                    <path d="M10.2333043,9.98699567 L17.4096032,16.8226364 C15.4916459,18.8371247 12.9392368,19.8833459 10.3626179,19.9456869 C7.78577493,20.0090807 5.18514762,19.0886389 3.1713585,17.1703389 L10.0054714,9.99232702 C10.0301292,10.0161389 10.0538912,10.0388755 10.1206756,10.0370835 C10.1867433,10.0355154 10.2095423,10.0116588 10.2333043,9.98699567 L10.2333043,9.98699567 Z M0.254949866,9.98699567 L19.930367,9.98699567 L19.930367,10.2026465 L0.254949866,10.2026465 L0.254949866,9.98699567 L0.254949866,9.98699567 Z M9.9844193,0.255043586 L10.2008975,0.255043586 L10.2008975,19.9345762 L9.9844193,19.9345762 L9.9844193,0.255043586 L9.9844193,0.255043586 Z M10.0929272,19.6462129 C15.358413,19.6462129 19.6421773,15.3616003 19.6421773,10.0951683 C19.6421773,4.82817624 15.3584354,0.543317257 10.0929272,0.543317257 C4.82692618,0.543317257 0.543005149,4.82817626 0.543005149,10.0951683 C0.543005149,15.3615779 4.82690377,19.6462129 10.0929272,19.6462129 L10.0929272,19.6462129 Z M10.1465652,2.6698087 C14.2700872,2.6698087 17.6238642,6.0249297 17.6238642,10.1487954 C17.6238642,14.2730195 14.2700872,17.6276029 10.1465652,17.6276029 C6.02340152,17.6276029 2.66906462,14.2730195 2.66906462,10.1487954 C2.66906462,6.0249297 6.0234239,2.6698087 10.1465652,2.6698087 L10.1465652,2.6698087 Z M10.1465652,13.4831286 C11.9843902,13.4831286 13.4801187,11.987058 13.4801187,10.148773 C13.4801187,8.31046561 11.9843902,6.81486539 10.1465652,6.81486539 C8.30858341,6.81486539 6.81339235,8.3104432 6.81339235,10.148773 C6.81341476,11.987058 8.30858341,13.4831286 10.1465652,13.4831286 L10.1465652,13.4831286 Z M10.0929272,20.0969135 C4.5699563,20.0969135 0.092669605,15.6186027 0.092669605,10.0951683 C0.092669605,4.57077065 4.56997869,0.0927062478 10.0929272,0.0927062478 C15.6154725,0.0927062478 20.0926696,4.57077065 20.0926696,10.0951683 C20.0926696,15.6186027 15.6154501,20.0969135 10.0929272,20.0969135 L10.0929272,20.0969135 L10.0929272,20.0969135 L10.0929272,20.0969135 Z M10.1465652,3.1203525 C6.26583647,3.1203525 3.1196689,6.26721488 3.1196689,10.148773 C3.1196689,14.0301967 6.26583647,17.1770815 10.1465652,17.1770815 C14.0272939,17.1770815 17.1734615,14.0302191 17.1734615,10.148773 C17.1734615,6.26721488 14.0272939,3.1203525 10.1465652,3.1203525 L10.1465652,3.1203525 L10.1465652,3.1203525 L10.1465652,3.1203525 Z M10.1465652,13.9335828 C8.05687658,13.9335828 6.36298964,12.2396251 6.36298964,10.148773 C6.36298964,8.05890657 8.05687658,6.36438881 10.1465652,6.36438881 C12.2360298,6.36438881 13.9305215,8.05890659 13.9305215,10.148773 C13.9305215,12.2396251 12.2360299,13.9335828 10.1465652,13.9335828 L10.1465652,13.9335828 L10.1465652,13.9335828 L10.1465652,13.9335828 Z M17.5162074,12.0923857 C18.2324488,12.0923857 18.8130385,12.6732788 18.8130385,13.3895612 C18.8130385,14.1055748 18.2324487,14.6873639 17.5162074,14.6873639 C16.7992494,14.6873639 16.2185029,14.1055748 16.2185029,13.3895612 C16.2184805,12.6732788 16.7992494,12.0923857 17.5162074,12.0923857 L17.5162074,12.0923857 L17.5162074,12.0923857 Z M7.06574869,2.74187151 C7.78185567,2.74187151 8.36293811,3.32289895 8.36293811,4.0394278 C8.36293811,4.75586703 7.78183326,5.33700648 7.06574869,5.33700648 C6.34910421,5.33700648 5.76802175,4.75588944 5.76802175,4.0394278 C5.76802175,3.32289895 6.3491266,2.74187151 7.06574869,2.74187151 L7.06574869,2.74187151 L7.06574869,2.74187151 Z" id="Shape"></path>
                </g>
            </g>
        </g>
    </g>
</svg>