<?xml version="1.0" encoding="UTF-8" standalone="no"?>
<svg width="48px" height="48px" viewBox="0 0 48 48" version="1.1" xmlns="http://www.w3.org/2000/svg" xmlns:xlink="http://www.w3.org/1999/xlink">
    <!-- Generator: Sketch 3.8.3 (29802) - http://www.bohemiancoding.com/sketch -->
    <title>Combined Shape</title>
    <desc>Created with Sketch.</desc>
    <defs></defs>
    <g id="线索管理_线索详情" stroke="none" stroke-width="1" fill="none" fill-rule="evenodd">
        <g id="跟进记录" transform="translate(-272.000000, -793.000000)" fill="#45AEF8">
            <g id="record" transform="translate(222.000000, 396.000000)">
                <g id="timeline" transform="translate(34.000000, 94.000000)">
                    <path d="M40,351 C53.254834,351 64,340.254834 64,327 C64,313.745166 53.254834,303 40,303 C26.745166,303 16,313.745166 16,327 C16,340.254834 26.745166,351 40,351 Z M48.0569917,333.671042 C47.764909,333.450497 47.4346659,333.269173 47.0640797,333.127281 C46.6957464,332.985283 46.3098467,332.862931 45.907683,332.760365 C45.5076668,332.657694 45.1414457,332.535376 44.8123643,332.393449 C44.4330828,332.251451 44.1387472,332.086563 43.9262594,331.897656 C43.7126803,331.707585 43.5610945,331.51113 43.4662917,331.305751 C43.3714537,331.100443 43.3191063,330.891961 43.3126288,330.678965 C43.3028775,330.466003 43.315938,330.256357 43.3475154,330.052142 C43.3780367,329.893814 43.4227099,329.75947 43.476043,329.64918 C43.5327205,329.538926 43.6003463,329.440628 43.6777586,329.353228 C43.756227,329.265864 43.8478262,329.184072 43.9501625,329.105455 C44.0514779,329.026838 44.1648681,328.932843 44.2924804,328.822588 C44.4014349,328.741713 44.5038768,328.616222 44.5987148,328.442587 C44.6935176,328.269974 44.7720564,328.095246 44.8352113,327.921716 C44.8973101,327.732739 44.9606058,327.519848 45.0237255,327.283996 C45.1643631,327.252253 45.2908138,327.180231 45.4008596,327.071034 C45.4945711,326.975981 45.589409,326.841637 45.684247,326.66913 C45.7791202,326.494437 45.8401981,326.265075 45.8727964,325.982278 C45.9043387,325.761663 45.9011704,325.576071 45.8619186,325.426385 C45.8227372,325.276804 45.779085,325.154522 45.7311379,325.059469 C45.6678422,324.949249 45.5981043,324.86185 45.5196359,324.799668 C45.5360054,324.263455 45.5032663,323.727278 45.4247627,323.190007 C45.3462943,322.73361 45.2242441,322.240004 45.0585769,321.711515 C44.8940714,321.184014 44.6390227,320.705785 44.2924452,320.28092 C43.992653,319.903141 43.5294818,319.547088 42.8994464,319.216183 C42.2695519,318.885384 41.553409,318.719403 40.7512291,318.719403 C40.4514721,318.719403 40.1365072,318.742293 39.8073906,318.790366 C39.4771123,318.837346 39.1457778,318.927885 38.8165556,319.062229 C38.4863828,319.195515 38.1637788,319.382165 37.8487084,319.618052 C37.5347996,319.855103 37.2503561,320.162977 36.9985814,320.540862 C36.7163557,320.951477 36.5059449,321.395882 36.374073,321.877461 C36.2389623,322.359005 36.1408856,322.820975 36.0776603,323.26097 C36.0155263,323.781947 35.9915176,324.295093 36.005775,324.799668 C35.8967852,324.926324 35.8106777,325.067158 35.7485437,325.224427 C35.6852832,325.352141 35.6439192,325.512726 35.629697,325.709252 C35.613433,325.90807 35.6439192,326.116552 35.7234789,326.337202 C35.8019473,326.558911 35.8848161,326.731382 35.9719797,326.856944 C36.0581224,326.984693 36.140956,327.079711 36.2194244,327.141927 C36.3141568,327.204179 36.4079739,327.252217 36.5028118,327.28396 C36.5659667,327.519848 36.6281008,327.732703 36.6924174,327.922704 C36.7534249,328.09521 36.8286193,328.269939 36.9147621,328.442516 C37.003017,328.616187 37.1011641,328.751554 37.2101538,328.844385 C37.4302455,329.019078 37.6351645,329.1949 37.8248757,329.376189 C38.0123338,329.558501 38.1246327,329.807473 38.1539923,330.123141 C38.1714532,330.343651 38.1780363,330.540212 38.1780363,330.71494 C38.1780363,330.886318 38.144241,331.053499 38.0723556,331.210733 C38.0026177,331.369061 37.8913749,331.526296 37.7410212,331.683531 C37.5916179,331.841858 37.3769476,332.015494 37.0925041,332.205494 C36.7306483,332.441346 36.3175363,332.619355 35.8532738,332.736205 C35.3899618,332.855242 34.9365771,332.992866 34.4974147,333.150101 C34.0570905,333.308429 33.6744999,333.513737 33.352952,333.766024 C33.0282005,334.018277 32.8287029,334.397185 32.7513258,334.901654 C32.6227629,335.769689 32.5997751,336.47855 32.6804965,337.030987 C32.7579088,337.582507 32.8592594,337.914541 32.9846187,338.024796 C33.0662906,338.088071 33.258114,338.15586 33.5632923,338.225695 C33.8707236,338.296659 34.248949,338.366494 34.6968067,338.438656 C35.1458613,338.50962 35.6374417,338.572895 36.1726038,338.628586 C36.7066043,338.683291 37.2505321,338.73348 37.8020638,338.781483 C38.3513778,338.829486 38.8821043,338.868882 39.3954755,338.900449 C39.9055729,338.932122 40.3568805,338.947464 40.7513699,338.947464 C41.143747,338.947464 41.6014969,338.932122 42.1203247,338.900449 C42.6403142,338.868847 43.1776237,338.829486 43.7367242,338.781483 C44.2958247,338.73348 44.8494686,338.674579 45.4010004,338.604638 C45.9514408,338.533569 46.4571729,338.458267 46.9127754,338.379649 C47.3693635,338.301032 47.7486802,338.213597 48.0570972,338.119708 C48.3634021,338.024796 48.5476919,337.929743 48.6108116,337.835853 C48.7056144,337.693855 48.7775701,337.480894 48.8243907,337.195911 C48.8712816,336.913008 48.8941638,336.609473 48.8941638,336.285164 C48.8941638,335.961842 48.8745907,335.643175 48.8353741,335.327507 C48.7971081,335.011944 48.7458519,334.744455 48.6827322,334.522747 C48.5573025,334.175547 48.3469621,333.891551 48.0569917,333.671042 Z M34.3304801,331.494729 C34.8035435,331.336295 35.2449589,331.132187 35.6537057,330.879864 C35.827012,330.768445 35.9360017,330.666902 35.9827871,330.571919 C36.0307341,330.477007 36.0688946,330.343686 36.1005073,330.170051 C36.0689298,330.012781 36.0493567,329.88609 36.0438298,329.791213 C36.0350993,329.696196 36.0089784,329.621916 35.9719444,329.567248 C35.9326927,329.512685 35.8803804,329.452619 35.8182816,329.389345 C35.755021,329.325929 35.6667661,329.247347 35.5588325,329.153458 C35.4334379,329.057311 35.3267012,328.912033 35.2416498,328.715472 C35.1533948,328.517853 35.0782003,328.324608 35.0149398,328.134501 C34.952841,327.913992 34.8896861,327.67814 34.8274817,327.424759 C34.7327493,327.394215 34.6389674,327.330799 34.5440943,327.236945 C34.4656259,327.15727 34.3795888,327.046909 34.2836947,326.904982 C34.1888215,326.762984 34.1037701,326.558876 34.0242104,326.289129 C33.945742,326.037899 33.9152207,325.805328 33.9293724,325.592366 C33.945742,325.378347 33.9849586,325.193813 34.0470926,325.03552 C34.1103531,324.86185 34.2051911,324.704615 34.3304448,324.562723 C34.3304448,324.011168 34.3708584,323.457637 34.4493267,322.907245 C34.5277951,322.448486 34.6465714,321.951705 34.8035434,321.416586 C34.9615715,320.879315 35.1980327,320.391281 35.5119415,319.948957 C35.7626954,319.602851 36.0580871,319.259883 36.3969551,318.920372 C36.7359287,318.58072 37.0531466,318.325152 37.3517419,318.150424 C37.2570095,317.851297 37.1839272,317.587053 37.1283411,317.358749 C37.0716636,317.13055 36.9431008,316.881613 36.739273,316.612925 C36.4243082,316.235146 35.9523009,315.880292 35.3234273,315.548294 C34.6945537,315.217389 33.9849938,315.052465 33.1981273,315.052465 C32.8830569,315.052465 32.5604529,315.075355 32.2302801,315.123429 C31.8989457,315.170409 31.5751448,315.259995 31.2525408,315.395433 C30.9277894,315.528578 30.6106067,315.714275 30.2956418,315.95122 C29.9795153,316.188166 29.6961278,316.495087 29.4465709,316.873924 C29.1610713,317.268139 28.9495693,317.710463 28.809002,318.198603 C28.6661818,318.6878 28.5638103,319.144232 28.5015707,319.571213 C28.4384158,320.09099 28.4155688,320.604172 28.4296854,321.108747 C28.3206956,321.22006 28.2345529,321.361 28.1702011,321.534564 C28.1091936,321.676562 28.0699418,321.845718 28.0536426,322.042385 C28.037273,322.240039 28.0699066,322.448521 28.1473189,322.669136 C28.2257873,322.891903 28.3086209,323.064515 28.3937075,323.190042 C28.4819624,323.316697 28.5637399,323.411715 28.6432644,323.473967 C28.7381024,323.537348 28.8307226,323.584222 28.9255958,323.615965 C28.9887507,323.85291 29.0520112,324.065872 29.1141452,324.254744 C29.1773001,324.428379 29.2526002,324.603107 29.3408551,324.775614 C29.4258361,324.949284 29.5315872,325.074846 29.6580378,325.154557 C29.8781647,325.343429 30.0787185,325.528069 30.2618114,325.709287 C30.4405743,325.892762 30.5462549,326.139583 30.5790293,326.456204 C30.594202,326.660454 30.6018763,326.850419 30.6018763,327.022996 C30.6018763,327.196631 30.5692427,327.365822 30.5070383,327.531804 C30.4438834,327.697786 30.3381676,327.859394 30.1899613,328.016628 C30.0384106,328.175062 29.8214872,328.347533 29.5414089,328.537605 C29.1773353,328.758114 28.7654203,328.931784 28.2989048,329.057346 C27.8367897,329.184072 27.3855172,329.322649 26.9441017,329.472335 C26.5016654,329.621916 26.1201308,329.827224 25.7975268,330.08706 C25.477035,330.348059 25.2754252,330.722664 25.1969567,331.210769 C25.0715622,332.094181 25.0432939,332.811577 25.1151792,333.364191 C25.1849172,333.915641 25.2907386,334.246581 25.4334532,334.357894 C25.5272351,334.436511 25.7561628,334.515128 26.1168569,334.593746 C26.4787127,334.673562 26.922346,334.751015 27.4509251,334.830797 C27.9784482,334.909449 28.5551151,334.980413 29.186101,335.044675 C29.8150802,335.107033 30.4373356,335.161596 31.04991,335.209634 C31.0663148,335.177996 31.0825436,335.149569 31.0978571,335.126678 C31.1142266,335.102624 31.1305258,335.075431 31.1447832,335.044675 C31.161012,334.901725 31.1719955,334.747665 31.1807259,334.581683 C31.1884003,334.416901 31.2079381,334.246581 31.2395508,334.072875 C31.3180192,333.506154 31.5197347,333.068274 31.8401209,332.760365 C32.163781,332.452386 32.5409503,332.204436 32.9746914,332.015564 C33.4062499,331.826692 33.8574871,331.653022 34.3304801,331.494729 Z M55.0902447,315.0525 L47.6669028,315.0525 C47.2483343,315.0525 46.906122,315.398607 46.906122,315.825623 L46.906122,320.663214 C46.906122,321.091288 47.2483695,321.436337 47.6669028,321.436337 L48.810239,321.436337 L48.810239,322.629881 C48.810239,322.844958 48.9812571,323.017535 49.1906117,323.017535 C49.2974893,323.017535 49.3933481,322.972707 49.4631213,322.900685 L50.9039262,321.436337 L55.0902799,321.436337 C55.5088484,321.436337 55.8510959,321.090195 55.8510959,320.663214 L55.8510959,315.825623 C55.8510607,315.398607 55.5088132,315.0525 55.0902447,315.0525 Z M49.666773,318.921465 C49.4041556,318.921465 49.1905765,318.705259 49.1905765,318.438687 C49.1905765,318.171198 49.4041556,317.954004 49.666773,317.954004 C49.9295664,317.954004 50.1409628,318.171198 50.1409628,318.438687 C50.1409628,318.705259 49.9295664,318.921465 49.666773,318.921465 Z M51.3791018,318.921465 C51.1175757,318.921465 50.9038911,318.705259 50.9038911,318.438687 C50.9038911,318.171198 51.1175758,317.954004 51.3791018,317.954004 C51.6406983,317.954004 51.8542774,318.171198 51.8542774,318.438687 C51.8542774,318.705259 51.6406983,318.921465 51.3791018,318.921465 Z M53.0903745,318.921465 C52.8297989,318.921465 52.6161847,318.705259 52.6161847,318.438687 C52.6161847,318.171198 52.8297637,317.954004 53.0903745,317.954004 C53.3529919,317.954004 53.5676975,318.171198 53.5676975,318.438687 C53.5676975,318.705259 53.3529919,318.921465 53.0903745,318.921465 Z" id="Combined-Shape"></path>
                </g>
            </g>
        </g>
    </g>
</svg>