<?xml version="1.0" encoding="UTF-8"?>
<svg width="20px" height="20px" viewBox="0 0 20 20" version="1.1" xmlns="http://www.w3.org/2000/svg" xmlns:xlink="http://www.w3.org/1999/xlink">
    <!-- Generator: Sketch 40 (33762) - http://www.bohemiancoding.com/sketch -->
    <title>contract</title>
    <desc>Created with Sketch.</desc>
    <defs></defs>
    <g id="Page-12" stroke="none" stroke-width="1" fill="none" fill-rule="evenodd">
        <g id="contract" fill="#272636">
            <path d="M10,1 C5.02512727,1 1,5.02578182 1,10 C1,14.9748727 5.02512727,19 10,19 C14.9742182,19 19,14.9748727 19,10 C19,5.02578182 14.9742182,1 10,1 L10,1 Z M13.8863636,11.1817818 C14.2476727,11.1817818 14.5409091,11.4746909 14.5409091,11.8363273 C14.5409091,12.1976364 14.2476727,12.4908727 13.8863636,12.4908727 L10.6545455,12.4908727 L10.6545455,15.5737818 C10.6545455,15.9354182 10.3613091,16.2283273 10,16.2283273 C9.63836364,16.2283273 9.34545455,15.9354182 9.34545455,15.5737818 L9.34545455,12.4908727 L6.11363636,12.4908727 C5.752,12.4908727 5.45909091,12.1976364 5.45909091,11.8363273 C5.45909091,11.4746909 5.752,11.1817818 6.11363636,11.1817818 L9.34545455,11.1817818 L9.34545455,9.73916364 L6.11363636,9.73916364 C5.752,9.73916364 5.45909091,9.44625455 5.45909091,9.08461818 C5.45909091,8.72330909 5.752,8.43007273 6.11363636,8.43007273 L8.63330909,8.43007273 L6.13589091,5.93265455 C5.88029091,5.67705455 5.88029091,5.26272727 6.13589091,5.00712727 C6.39149091,4.75152727 6.80581818,4.75152727 7.06141818,5.00712727 L10.0356727,7.98138182 L13.0092727,5.00712727 C13.2648727,4.75152727 13.6792,4.75152727 13.9348,5.00712727 C14.1904,5.26272727 14.1904,5.67705455 13.9348,5.93265455 L11.4373818,8.43007273 L13.8860364,8.43007273 C14.2473455,8.43007273 14.5405818,8.72330909 14.5405818,9.08461818 C14.5405818,9.44625455 14.2473455,9.73916364 13.8860364,9.73916364 L10.6545455,9.73916364 L10.6545455,11.1817818 L13.8863636,11.1817818 L13.8863636,11.1817818 Z" id="icon-财务管理"></path>
        </g>
    </g>
</svg>