<?xml version="1.0" encoding="UTF-8"?>
<svg width="20px" height="20px" viewBox="0 0 20 20" version="1.1" xmlns="http://www.w3.org/2000/svg" xmlns:xlink="http://www.w3.org/1999/xlink">
    <!-- Generator: Sketch 40 (33762) - http://www.bohemiancoding.com/sketch -->
    <title>course</title>
    <desc>Created with Sketch.</desc>
    <defs></defs>
    <g id="Page-12" stroke="none" stroke-width="1" fill="none" fill-rule="evenodd">
        <g id="course" fill="#272636">
            <path d="M17.0003797,6.45035462 L17.0003797,16.8013546 C17.0003797,17.3233546 16.5483797,17.5723546 16.0003797,17.9613546 C15.5603797,18.2743546 15.0003797,17.8863546 15.0003797,17.3743546 L15.0003797,7.26035462 C15.0003797,7.04935462 14.9263797,6.84835462 14.6863797,6.72535462 C14.4463797,6.60235462 6.94837973,2.66035462 6.94837973,2.66035462 C6.82737973,2.61535462 6.29937973,2.28235462 5.59537973,2.64435462 C4.92637973,2.98835462 4.56237973,3.36235462 4.46937973,3.53835462 L12.6493797,8.02035462 C12.8663797,8.13435462 13.0003797,8.31035462 13.0003797,8.53635462 L13.0003797,19.3383546 C13.0003797,19.5683546 12.8583797,19.8143546 12.6313797,19.9233546 C12.5273797,19.9753546 12.4123797,20.0003546 12.2983797,20.0003546 C12.1633797,20.0003546 12.0273797,19.9673546 11.9123797,19.8963546 C11.6973797,19.7653546 4.13837973,15.1303546 3.63937973,14.8293546 C3.39937973,14.6853546 3.11837973,14.3903546 3.11237973,14.1713546 L3.00037973,3.88535462 C3.00037973,3.68735462 2.97737973,3.33835462 3.28937973,2.85335462 C3.98637973,1.76935462 6.41837973,0.536354619 7.64937973,1.17535462 L16.6483797,5.73035462 C16.8653797,5.84235462 17.0003797,6.06635462 17.0003797,6.45035462 L17.0003797,6.45035462 Z" id="icon-课程管理"></path>
        </g>
    </g>
</svg>