<?xml version="1.0" encoding="UTF-8"?>
<svg width="36px" height="36px" viewBox="0 0 36 36" version="1.1" xmlns="http://www.w3.org/2000/svg" xmlns:xlink="http://www.w3.org/1999/xlink">
    <!-- Generator: Sketch 40 (33762) - http://www.bohemiancoding.com/sketch -->
    <title>course bundle</title>
    <desc>Created with Sketch.</desc>
    <defs></defs>
    <g id="Page-12" stroke="none" stroke-width="1" fill="none" fill-rule="evenodd">
        <g id="course-bundle" fill="#272636">
            <path d="M30.7967578,8.50879847 C30.7967578,6.67203041 28.9703492,6.67203041 28.9703492,6.67203041 L7.02760816,6.67203041 C7.02760816,6.67203041 5.19981435,6.67203041 5.19981435,8.50879847 L5.19981435,10.3467712 L30.7967578,10.3467712 L30.7967578,8.50879847 L30.7967578,8.50879847 L30.7967578,8.50879847 L30.7967578,8.50879847 Z M25.309883,3 L10.6844004,3 C10.6844004,3 8.85799186,3 8.85799186,4.83791243 L27.140086,4.83791243 C27.140086,3 25.308558,3 25.309883,3 L25.309883,3 L25.309883,3 L25.309883,3 Z M34.4508397,10.3467109 L33.3695341,9.26010503 L33.3695341,12.1821539 L2.62595395,12.1821539 L2.62595395,9.26010503 L1.54440736,10.3467109 C0.462860813,11.4345816 -0.312718363,11.7263348 0.123827252,14.0226562 C0.555072647,16.3084375 2.65546657,28.8528599 2.96522844,30.5499551 C3.30950201,32.4123208 5.2011394,32.3867231 5.2011394,32.3867231 L30.7980226,32.3867231 C30.7980226,32.3867231 32.6910454,32.4134652 33.0339938,30.5499551 C33.346466,28.8527997 35.4442098,16.3084375 35.8767803,14.0226562 C36.3118804,11.7263348 35.5375058,11.4345816 34.4508397,10.3467109 L34.4508397,10.3467109 L34.4508397,10.3467109 L34.4508397,10.3467109 Z M25.309883,20.2659571 C25.309883,20.2659571 25.309883,22.1025445 23.4807641,22.1025445 L12.5133386,22.1025445 C10.6855448,22.1025445 10.6855448,20.2659571 10.6855448,20.2659571 L10.6855448,16.5914573 L13.2453114,16.5914573 L13.2453114,19.5313342 L22.7462014,19.5313342 L22.7462014,16.5914573 L25.3098228,16.5914573 L25.3098228,20.2659571 L25.309883,20.2659571 L25.309883,20.2659571 L25.309883,20.2659571 Z" id="Shape"></path>
        </g>
    </g>
</svg>