<?xml version="1.0" encoding="UTF-8" standalone="no"?>
<svg width="21px" height="19px" viewBox="0 0 21 19" version="1.1" xmlns="http://www.w3.org/2000/svg" xmlns:xlink="http://www.w3.org/1999/xlink">
    <!-- Generator: Sketch 3.8.3 (29802) - http://www.bohemiancoding.com/sketch -->
    <title>Shape</title>
    <desc>Created with Sketch.</desc>
    <defs></defs>
    <g id="学员管理" stroke="none" stroke-width="1" fill="none" fill-rule="evenodd">
        <g id="nav_btn_index" transform="translate(-38.000000, -364.000000)" fill="#FFFFFF">
            <g id="教务">
                <g transform="translate(0.000000, 352.000000)">
                    <path d="M44.1814366,22.9624211 L44.1814366,27.1913368 L52.1814366,27.1913368 L52.1814366,22.9624211 L44.1814366,22.9624211 L44.1814366,22.9624211 Z M50.9242938,25.9985657 L45.4385795,25.9985657 L45.4385795,24.0467585 L50.9242938,24.0467585 L50.9242938,25.9985657 L50.9242938,25.9985657 Z M47.6100081,13.1383247 C47.6100081,12.5961561 47.1985795,12.1190476 46.6271509,12.1190476 L44.4900081,12.1190476 C43.9185795,12.1190476 43.4957224,12.5961561 43.4957224,13.1383247 L43.4957224,14.1576018 L47.6100081,14.190132 L47.6100081,13.1383247 L47.6100081,13.1383247 Z M53.8957224,19.2756741 L53.8957224,15.1660356 C53.8957224,14.6238669 53.4157224,14.1792886 52.8442938,14.1792886 L49.7128652,14.1792886 C49.1414366,14.1792886 48.6385795,14.6238669 48.6385795,15.1660356 L48.6385795,19.2756741 L53.8957224,19.2756741 L53.8957224,19.2756741 Z M56.9814366,19.2756741 L56.9814366,18.082903 C56.9814366,17.5407344 56.5814366,17.1069994 56.0100081,17.1069994 L55.8500081,17.1069994 C55.2785795,17.1069994 54.9242938,17.5841079 54.9242938,18.1262765 L54.9242938,19.2756741 L56.9814366,19.2756741 L56.9814366,19.2756741 Z M39.3814366,17.2154332 L42.4671509,17.2154332 L42.4671509,19.2756741 L39.3814366,19.2756741 L39.3814366,17.2154332 L39.3814366,17.2154332 Z M43.4957224,15.1551922 L47.6100081,15.1551922 L47.6100081,19.2756741 L43.4957224,19.2756741 L43.4957224,15.1551922 L43.4957224,15.1551922 Z M42.4671509,15.1551922 C42.4671509,14.6130235 42.0100081,14.1792886 41.4385795,14.1792886 L40.3757224,14.1792886 C39.8042938,14.1792886 39.3814366,14.6130235 39.3814366,15.1551922 L39.3814366,16.1636259 L42.4671509,16.1310958 L42.4671509,15.1551922 L42.4671509,15.1551922 Z M39.7242938,19.2756741 L38.1242938,19.2756741 L38.1242938,30.1190476 L58.1242938,30.1190476 L58.1242938,20.3925416 L58.1242938,19.2756741 L56.7528652,19.2756741 L39.7242938,19.2756741 L39.7242938,19.2756741 Z M56.9814366,20.4250717 L56.9814366,29.0347103 L39.3814366,29.0347103 L39.3814366,20.3600115 L39.6671509,20.3600115 L39.7242938,20.3600115 L56.7185795,20.3600115 L56.9814366,20.3600115 L56.9814366,20.4250717 L56.9814366,20.4250717 Z" id="Shape"></path>
                </g>
            </g>
        </g>
    </g>
</svg>