<?xml version="1.0" encoding="UTF-8" standalone="no"?>
<svg width="23px" height="21px" viewBox="0 0 23 21" version="1.1" xmlns="http://www.w3.org/2000/svg" xmlns:xlink="http://www.w3.org/1999/xlink">
    <!-- Generator: Sketch 3.8.3 (29802) - http://www.bohemiancoding.com/sketch -->
    <title>icon-nav-home</title>
    <desc>Created with Sketch.</desc>
    <defs></defs>
    <g id="PC" stroke="none" stroke-width="1" fill="none" fill-rule="evenodd">
        <g id="左导" transform="translate(-37.000000, -12.000000)" fill="#FFFFFF">
            <g id="日程管理-copy">
                <path d="M55.9088812,23.4543124 L48.8417602,15.8789593 C48.8361092,15.8732643 48.7037644,15.7228487 48.5169276,15.7228487 C48.2970145,15.7228487 48.1930831,15.8732423 48.1874541,15.8789593 L41.1202649,23.4543124 L41.1331738,23.4543124 L40.5614011,24.069143 L40.5614011,32.4307643 C40.5614011,32.4307643 41.2129807,32.445893 42.0174009,32.445893 L45.674267,32.445893 C45.6708364,32.4029231 45.6687261,32.3594273 45.6687261,32.3154451 L45.6687261,26.7367807 C45.6687261,25.9319974 46.2647993,25.2794518 46.9998145,25.2794518 L50.0760225,25.2794518 C50.8110157,25.2794518 51.4072209,25.9320172 51.4072209,26.7367807 L51.4072209,32.3154904 C51.4072209,32.3594704 51.4050886,32.4029684 51.401548,32.4459384 L55.0092635,32.4459384 C55.8137718,32.4459384 56.4660555,32.4308097 56.4660555,32.4308097 L56.4660555,24.0691429 L55.8942829,23.4543124 L55.9088815,23.4543124 L55.9088812,23.4543124 Z M50.1574316,12.6851125 C49.2456735,11.7716292 47.7664712,11.7716292 46.8547571,12.6851125 L37.568342,21.9852634 C37.9120221,22.6552021 38.5255786,23.1634011 39.2652127,23.3662622 L48.0442034,14.6123973 C48.0990937,14.5578834 48.1527736,14.5099666 48.2058176,14.4698552 C48.3113312,14.3752958 48.4132184,14.3357345 48.5145972,14.3395833 C48.6159761,14.3357566 48.7178632,14.3752958 48.8233989,14.4698552 C48.8764648,14.5099666 48.9301448,14.5578614 48.985035,14.6123973 L57.7654099,23.3675826 C58.5015253,23.1673819 59.1130133,22.6647238 59.4590701,22.0011183 L50.1574316,12.6851125 L50.1574316,12.6851125 Z" id="icon-nav-home"></path>
            </g>
        </g>
    </g>
</svg>