<?xml version="1.0" encoding="UTF-8" standalone="no"?>
<svg width="21px" height="16px" viewBox="0 0 21 16" version="1.1" xmlns="http://www.w3.org/2000/svg" xmlns:xlink="http://www.w3.org/1999/xlink">
    <!-- Generator: Sketch 3.8.3 (29802) - http://www.bohemiancoding.com/sketch -->
    <title>Shape</title>
    <desc>Created with Sketch.</desc>
    <defs></defs>
    <g id="学员管理" stroke="none" stroke-width="1" fill="none" fill-rule="evenodd">
        <g id="nav_btn_index" transform="translate(-39.000000, -498.000000)" fill="#FFFFFF">
            <g id="作业系统">
                <g transform="translate(0.000000, 484.000000)">
                    <path d="M48.2634006,15.7185449 C46.8908436,15.3769756 45.5228633,15.0543384 44.2719113,14.9000805 C43.0787222,14.7521413 42.0010589,14.7584361 41.1255312,15.0558941 L41.1255312,26.6178649 C43.3735696,26.1850572 45.6474731,26.6792091 47.9137951,27.171877 L48.2634006,27.2458585 L48.2634006,15.7185449 L48.2634006,15.7185449 L48.2634006,15.7185449 Z M54.3980351,23.6101111 C54.3205094,22.5666144 54.2430067,21.5231417 54.1669834,20.474906 C53.9237967,20.454466 53.5529259,20.454466 53.3066187,20.429239 C53.232121,22.0771538 53.2762695,23.6904114 53.2063022,25.3351907 C52.9783016,24.8189713 52.6834079,24.3325503 51.885406,24.0871019 C51.7227498,24.2649592 51.6726147,24.3199847 51.5084099,24.4947544 C52.0464672,25.1132939 52.3185238,25.9333141 52.5298589,26.7013724 L52.7015759,28.4405256 C52.8885253,28.827762 53.0694186,29.2180141 53.256368,29.5988839 C54.3371055,29.5626949 55.212587,29.5312211 56.2933245,29.4918727 C56.402725,29.2589421 56.5106693,29.0181131 56.6201623,28.7788637 C56.8040837,27.4599527 57.077689,24.9400799 57.0655539,23.6148262 C56.7448414,23.544004 56.5852595,23.4700224 56.2645008,23.4038914 C56.2264545,23.5329941 56.145947,24.1184322 56.1063982,24.247511 C56.0912352,23.7926117 56.074431,23.3377603 56.0623653,22.8797496 C55.8069973,22.826256 55.551583,22.7726905 55.2992892,22.7160615 C55.2718986,22.8388455 55.252182,22.9678765 55.2308705,23.093748 C55.2126564,22.8986339 55.1959215,22.7003126 55.1746563,22.5082382 C54.9405535,22.4768122 54.7079532,22.442155 54.4769015,22.4090775 C54.4449574,22.8104353 54.4237152,23.2101894 54.3978271,23.6099675 L54.3978271,23.6099675 L54.3979657,23.6099675 L54.3979657,23.6100632 L54.3980351,23.6100632 L54.3980351,23.6101111 Z M57.5976015,15.8224207 L59.0461586,16.1151636 L59.0461586,29.181849 C58.4974687,29.0984612 57.947207,28.9976969 57.3604707,28.9206039 L57.3665729,28.8985363 C57.4851499,28.0344048 57.5885175,27.1562238 57.6660201,26.2921402 C57.7526067,25.4091483 57.8286763,24.4900154 57.8180205,23.6054439 L57.8118721,22.977546 L57.2236565,22.8468875 C57.0929908,22.8201526 56.9652836,22.788607 56.8406738,22.747679 L56.8406738,15.0543623 C55.9651692,14.75846 54.8813575,14.7521892 53.6912426,14.8985487 C52.4403137,15.0543623 51.072264,15.3770474 49.6967484,15.7185928 L49.6967484,27.2428189 L50.0478101,27.1687894 C50.6269418,27.0460054 51.1999943,26.9200859 51.7821077,26.80678 L51.7882099,26.8492638 L51.9599731,28.6655817 L52.0223126,28.7947084 L52.1119965,28.9725418 C51.5176788,29.0496827 50.8792818,29.1566939 50.1815733,29.288956 L50.1815733,29.7107299 C48.6737508,30.1325516 49.4184971,30.1325516 47.9091491,29.7107299 L47.9091491,29.288956 C43.1424717,28.3729584 41.1558573,28.8498296 39.0461586,29.1787615 L39.0461586,16.1136318 L40.3655062,15.846068 L40.3655062,14.5208143 L40.6056649,14.424813 C41.652979,13.9809715 42.9449128,13.952633 44.364577,14.1257513 C45.7447155,14.2910191 47.2388542,14.6655941 48.7314674,15.0323426 L48.9807564,15.092131 L49.2315709,15.0323426 C50.7242303,14.6656181 52.2183691,14.2910191 53.5985076,14.1257513 C55.0151206,13.9542127 56.3117236,13.9809236 57.3574196,14.424813 L57.5976246,14.5224179 L57.5976246,15.8224686 L57.5976246,15.8224207 L57.5976015,15.8224207 Z M47.5398732,16.9131641 L47.5398732,17.3884795 C46.4029215,17.1319494 45.2826814,16.8848496 44.2855488,16.7589301 C43.3355233,16.6330107 42.4980419,16.610967 41.865724,16.79038 L41.865724,16.3103496 C42.5482233,16.1529562 43.4024164,16.1702609 44.3493908,16.2930449 C45.3404444,16.4205201 46.4333169,16.6597455 47.5398732,16.9131641 L47.5398732,16.9131641 L47.5398732,16.9131641 L47.5398732,16.9131641 Z M47.5398732,24.9464225 L47.5398732,25.4296124 C46.4029215,25.1651839 45.2811097,24.9228231 44.2855488,24.7906567 C43.3355233,24.6678488 42.4980419,24.655331 41.865724,24.8300529 L41.865724,24.3452834 C42.5482233,24.1847547 43.4024164,24.2067505 44.3493908,24.3326699 C45.3404444,24.4585415 46.4333169,24.6914721 47.5398732,24.9464225 L47.5398732,24.9464225 L47.5398732,24.9464225 L47.5398732,24.9464225 Z M47.5398732,23.732919 L47.5398732,24.2161089 C46.4029215,23.9548398 45.2811097,23.7045567 44.2855488,23.5771054 C43.3355233,23.4542975 42.4980419,23.4401522 41.865724,23.6164777 L41.865724,23.1317082 C42.5482233,22.9711794 43.4024164,22.9915956 44.3493908,23.1175389 C45.3404444,23.2419026 46.4333169,23.4779926 47.5398732,23.732919 L47.5398732,23.732919 L47.5398732,23.732919 L47.5398732,23.732919 Z M47.5398732,19.5746334 L47.5398732,20.0515524 C46.4029215,19.7934188 45.2811097,19.5431835 44.2855488,19.4125729 C43.3355233,19.2976633 42.4980419,19.2740399 41.865724,19.4550566 L41.865724,18.9750022 C42.5482233,18.806599 43.4024164,18.8254833 44.3493908,18.9514028 C45.3404212,19.0835931 46.4332938,19.3165716 47.5398732,19.5747052 L47.5398732,19.5747052 L47.5398732,19.5746334 L47.5398732,19.5746334 L47.5398732,19.5746334 Z M47.5398732,18.2462443 L47.5398732,18.7278784 C46.4029215,18.4713484 45.2811097,18.2195095 44.2855488,18.0904546 C43.3355233,17.9724096 42.4980419,17.9519456 41.865724,18.1313587 L41.865724,17.6466131 C42.5482233,17.4829011 43.4024164,17.508128 44.3493908,17.6277288 C45.3404444,17.7567597 46.4333169,17.9944054 47.5398732,18.2462443 L47.5398732,18.2462443 L47.5398732,18.2462443 L47.5398732,18.2462443 Z M50.6269417,19.566759 L50.6269417,20.048417 C51.2942317,19.8831971 51.9569219,19.7288913 52.5862581,19.5966532 L52.5862581,19.5809043 L52.6637838,19.5840636 C53.0058309,19.5211159 53.3371529,19.4597478 53.6517632,19.4140568 C54.5516304,19.2928764 55.3434608,19.2755718 55.9408066,19.4597478 L55.9408066,18.9749544 C55.2963536,18.8081308 54.4892215,18.8254355 53.5924516,18.9513549 C52.6698398,19.0835452 51.6514187,19.314944 50.6269417,19.566759 L50.6269417,19.566759 L50.6269417,19.566759 L50.6269417,19.566759 Z M50.6269417,16.9068454 L50.6269417,17.3837643 C51.6803118,17.1272104 52.723026,16.8832459 53.6517169,16.7589062 C54.5515841,16.6345903 55.3434146,16.610967 55.9407603,16.7982545 L55.9407603,16.3166443 C55.2963074,16.1529562 54.4891752,16.1702609 53.5924053,16.293021 C52.6698398,16.4205201 51.6514187,16.651895 50.6269417,16.9068454 L50.6269417,16.9068454 L50.6269417,16.9068454 L50.6269417,16.9068454 Z M50.6269417,18.2415292 L50.6269417,18.7215836 C51.6803118,18.4666093 52.723026,18.2210652 53.6517169,18.0919864 C54.5515841,17.9739414 55.3434146,17.9535013 55.9407603,18.1407889 L55.9407603,17.6544397 C55.2963074,17.4844568 54.4891752,17.5017854 53.5924053,17.6276809 C52.6698398,17.7567358 51.6514187,17.9896903 50.6269417,18.2415292 L50.6269417,18.2415292 L50.6269417,18.2415292 Z" id="Shape"></path>
                </g>
            </g>
        </g>
    </g>
</svg>