<?xml version="1.0" encoding="UTF-8"?>
<svg width="20px" height="20px" viewBox="0 0 20 20" version="1.1" xmlns="http://www.w3.org/2000/svg" xmlns:xlink="http://www.w3.org/1999/xlink">
    <!-- Generator: Sketch 40 (33762) - http://www.bohemiancoding.com/sketch -->
    <title>message</title>
    <desc>Created with Sketch.</desc>
    <defs></defs>
    <g id="Page-12" stroke="none" stroke-width="1" fill="none" fill-rule="evenodd">
        <g id="message" fill="#272636">
            <path d="M14.6500271,9.36499351 C12.3700271,4.45799351 11.1840271,2.59399351 7.45902715,2.67199351 C6.13202715,2.69899351 6.45002715,1.70999351 5.43802715,2.08499351 C4.42802715,2.45999351 5.29502715,3.00899351 4.26102715,3.85799351 C1.35902715,6.24099351 1.62602715,8.44499351 2.97202715,13.6979935 C3.53902715,15.9109935 1.60502715,16.0189935 2.37002715,18.1629935 C2.92902715,19.7269935 7.04902715,20.3819935 11.3950271,18.7699935 C15.7420271,17.1569935 18.4810271,13.9559935 17.9220271,12.3919935 C17.1570271,10.2469935 15.6110271,11.4309935 14.6500271,9.36499351 L14.6500271,9.36499351 Z M10.9240271,17.4479935 C7.04202715,18.8879935 3.85202715,18.0419935 3.71702715,17.6649935 C3.48502715,17.0149935 4.97002715,14.8489935 9.40802715,13.2019935 C13.8460271,11.5549935 16.3230271,12.1659935 16.5820271,12.8909935 C16.7350271,13.3199935 14.8070271,16.0069935 10.9240271,17.4479935 L10.9240271,17.4479935 Z M9.67602715,13.9539935 C7.64702715,14.7069935 6.23702715,15.5679935 5.32302715,16.3429935 C5.96602715,16.9269935 7.17002715,17.0689935 8.36902715,16.6239935 C9.89602715,16.0589935 10.8350271,14.7579935 10.4640271,13.7199935 C10.4590271,13.7069935 10.4530271,13.6969935 10.4480271,13.6839935 C10.1970271,13.7659935 9.94002715,13.8549935 9.67602715,13.9539935 L9.67602715,13.9539935 Z" id="Shape"></path>
        </g>
    </g>
</svg>