<?xml version="1.0" encoding="UTF-8"?>
<svg width="20px" height="20px" viewBox="0 0 20 20" version="1.1" xmlns="http://www.w3.org/2000/svg" xmlns:xlink="http://www.w3.org/1999/xlink">
    <!-- Generator: Sketch 40 (33762) - http://www.bohemiancoding.com/sketch -->
    <title>organization</title>
    <desc>Created with Sketch.</desc>
    <defs></defs>
    <g id="Page-12" stroke="none" stroke-width="1" fill="none" fill-rule="evenodd">
        <g id="organization" fill="#272636">
            <path d="M3.303,12.83775 C3.767,14.71675 4.357,15.53875 6.325,16.39975 C8.294,17.25975 9.229,18.19975 10.001,18.19975 C10.772,18.19975 11.649,17.37775 13.617,16.51575 C15.586,15.65475 15.06,15.39275 15.524,13.51375 L10.001,16.19975 L3.303,12.83775 L3.303,12.83775 Z M19.512,7.93575 L11.187,3.27375 C10.535,2.90875 9.467,2.90875 8.815,3.27375 L0.489,7.93575 C-0.163,8.30075 -0.163,8.89875 0.489,9.26375 L8.814,13.92575 C9.466,14.29075 10.534,14.29075 11.186,13.92575 L16.568,10.91175 L10.732,9.54475 C10.507,9.59975 10.26,9.63075 10.001,9.63075 C8.949,9.63075 8.097,9.12475 8.097,8.49975 C8.097,7.87275 8.95,7.36675 10.001,7.36675 C10.817,7.36675 11.511,7.67375 11.781,8.10075 L17.963,10.12975 L19.512,9.26275 C20.163,8.89875 20.163,8.30075 19.512,7.93575 L19.512,7.93575 Z M16.968,16.76975 C16.903,17.15475 18.251,17.78775 18.379,16.66275 C18.958,11.59075 17.963,10.13175 17.963,10.13175 L16.568,10.91275 C16.568,10.91175 17.751,12.03775 16.968,16.76975 L16.968,16.76975 Z" id="icon-学生管理"></path>
        </g>
    </g>
</svg>