<?xml version="1.0" encoding="UTF-8" standalone="no"?>
<svg width="27px" height="25px" viewBox="0 0 27 25" version="1.1" xmlns="http://www.w3.org/2000/svg" xmlns:xlink="http://www.w3.org/1999/xlink">
    <!-- Generator: Sketch 3.8.3 (29802) - http://www.bohemiancoding.com/sketch -->
    <title>Shape</title>
    <desc>Created with Sketch.</desc>
    <defs></defs>
    <g id="线索管理_线索详情" stroke="none" stroke-width="1" fill="none" fill-rule="evenodd">
        <g id="跟进记录" transform="translate(-1422.000000, -1038.000000)" fill="#94989E">
            <g id="record_add" transform="translate(1372.000000, 460.000000)">
                <g id="图片" transform="translate(50.000000, 578.000000)">
                    <path d="M26.1544317,22.4905165 C26.1544317,23.3401896 25.4854316,24.0289237 24.660146,24.0289237 L1.64868881,24.0289238 C0.82343167,24.0289238 0.15443166,23.3401896 0.15443166,22.4905165 L0.15443166,1.56738983 C0.15443166,0.717716726 0.82343167,0.0289237581 1.64868881,0.0289237581 L24.6601459,0.0289237581 C25.4854316,0.0289237581 26.1544316,0.717716726 26.1544316,1.56738983 L26.1544317,22.4905165 L26.1544317,22.4905165 Z M25.0115745,2.29162997 C25.0115745,1.64949196 24.5060031,1.12896276 23.8823174,1.12896276 L2.42654594,1.12896273 C1.80288879,1.12896273 1.2972888,1.64949193 1.2972888,2.29162994 L1.2972888,21.7661881 C1.2972888,22.4082967 1.80288879,22.9288259 2.42654594,22.9288259 L23.8822888,22.9288259 C24.5059745,22.9288259 25.0115459,22.4082967 25.0115459,21.7661881 L25.0115745,2.29162997 L25.0115745,2.29162997 L25.0115745,2.29162997 Z M6.66391738,4.12141 C5.28320309,4.12141 4.16391739,5.27381076 4.16391739,6.6953747 C4.16391739,8.11693864 5.28320309,9.2693394 6.66391738,9.2693394 C8.04463166,9.2693394 9.16391737,8.11693864 9.16391737,6.6953747 C9.16391737,5.27381076 8.04463166,4.12141 6.66391738,4.12141 L6.66391738,4.12141 Z M8.02106022,6.6953747 C8.02106022,7.46709345 7.41340309,8.09266982 6.66391738,8.09266982 C5.91437451,8.09266982 5.30677453,7.46709342 5.30677453,6.6953747 C5.30677453,5.92365595 5.91437454,5.29807958 6.66391738,5.29807958 C7.41343165,5.29807958 8.02106022,5.92365595 8.02106022,6.6953747 L8.02106022,6.6953747 Z M3.09728882,17.8670876 L7.91157452,14.1311616 L10.5258602,16.8963352 L17.0115745,10.1966727 L23.0972888,16.4845008 L23.8687173,15.6019986 L17.0258602,8.53462693 L10.5258602,15.1607475 L8.0115745,12.5720744 L2.44014592,16.8963352 L3.09728882,17.8670876 L3.09728882,17.8670876 Z M23.4905459,17.4258365 L14.4249745,17.4258365 L14.4249745,18.602506 L23.4905459,18.602506 L23.4905459,17.4258365 L23.4905459,17.4258365 Z M23.4905459,20.112585 L9.24448881,20.112585 L9.24448881,21.2892546 L23.4905174,21.2892546 L23.4905459,20.112585 L23.4905459,20.112585 L23.4905459,20.112585 Z" id="Shape"></path>
                </g>
            </g>
        </g>
    </g>
</svg>