<?xml version="1.0" encoding="UTF-8" standalone="no"?>
<svg width="49px" height="49px" viewBox="0 0 49 49" version="1.1" xmlns="http://www.w3.org/2000/svg" xmlns:xlink="http://www.w3.org/1999/xlink">
    <!-- Generator: Sketch 3.8.3 (29802) - http://www.bohemiancoding.com/sketch -->
    <title>Shape</title>
    <desc>Created with Sketch.</desc>
    <defs></defs>
    <g id="线索管理_线索详情" stroke="none" stroke-width="1" fill="none" fill-rule="evenodd">
        <g id="交互状态" transform="translate(-50.000000, -1623.000000)" fill="#46AEF7">
            <path d="M77.1923762,1647.00668 C76.6451406,1647.00668 76.0976648,1647.51487 76.0976648,1648.14048 C76.0976648,1648.64877 76.6448525,1649.15706 77.1923762,1649.15706 C78.0137099,1649.15706 78.6001298,1648.64877 78.6001298,1648.14048 C78.6001298,1647.51492 78.0137099,1647.00668 77.1923762,1647.00668 L77.1923762,1647.00668 L77.1923762,1647.00668 Z M73.5950077,1641.72765 C74.4552376,1641.72765 75.0027613,1641.18041 75.0027613,1640.35903 C75.0027613,1639.49875 74.4552856,1638.99051 73.5950077,1638.99051 C72.7738661,1638.99051 71.9917648,1639.4988 71.9917648,1640.35903 C71.9917167,1641.18046 72.7738661,1641.72765 73.5950077,1641.72765 L73.5950077,1641.72765 L73.5950077,1641.72765 Z M74.0251226,1623.02613 C60.7701686,1623.02613 50.0250746,1633.77122 50.0250746,1647.02617 C50.0250746,1660.28103 60.7701686,1671.02613 74.0251226,1671.02613 C87.2799807,1671.02613 98.0250746,1660.28103 98.0250746,1647.02617 C98.0251226,1633.77122 87.2800287,1623.02613 74.0251226,1623.02613 L74.0251226,1623.02613 L74.0251226,1623.02613 Z M69.4892997,1653.10651 C68.0423618,1653.10651 66.9865946,1652.87208 65.6180253,1652.48091 L61.6686704,1654.47532 L62.8028542,1651.11229 C60.0265312,1649.15735 58.384056,1646.69383 58.384056,1643.68288 C58.384056,1638.36491 63.3892261,1634.29819 69.4893478,1634.29819 C74.8854485,1634.29819 79.6951294,1637.50468 80.6335357,1642.04074 C80.2425571,1641.96232 79.8905227,1641.92343 79.5777685,1641.92343 C74.2597963,1641.92343 70.1541363,1645.91177 70.1541363,1650.72145 C70.1541363,1651.5425 70.2714491,1652.28542 70.4669865,1653.06761 C70.1541363,1653.10651 69.8021019,1653.10651 69.4892997,1653.10651 L69.4892997,1653.10651 L69.4892997,1653.10651 Z M85.795155,1656.93855 L86.5770643,1659.75411 L83.6053,1658.07274 C82.4714043,1658.30717 81.3764528,1658.65916 80.2425571,1658.65916 C75.0027133,1658.65916 70.8578691,1655.06179 70.8578691,1650.60414 C70.8578691,1646.14645 75.0027613,1642.54903 80.2425571,1642.54903 C85.2084949,1642.54903 89.6661893,1646.14645 89.6661893,1650.60414 C89.6661893,1653.10651 87.9848179,1655.33536 85.795155,1656.93855 L85.795155,1656.93855 L85.795155,1656.93855 Z M65.8526989,1638.99051 C65.0315573,1638.99051 64.1713275,1639.4988 64.1713275,1640.35903 C64.1713275,1641.18041 65.0315573,1641.72789 65.8526989,1641.72789 C66.6348483,1641.72789 67.2604525,1641.18041 67.2604525,1640.35903 C67.2604525,1639.4988 66.6348483,1638.99051 65.8526989,1638.99051 L65.8526989,1638.99051 L65.8526989,1638.99051 Z M83.3316822,1647.00668 C82.7450221,1647.00668 82.2367307,1647.51487 82.2367307,1648.14048 C82.2367307,1648.64877 82.7450221,1649.15706 83.3316822,1649.15706 C84.1135914,1649.15706 84.7002035,1648.64877 84.7002035,1648.14048 C84.7002035,1647.51492 84.1135914,1647.00668 83.3316822,1647.00668 L83.3316822,1647.00668 L83.3316822,1647.00668 Z" id="Shape"></path>
        </g>
    </g>
</svg>