<?xml version="1.0" encoding="UTF-8" standalone="no"?>
<svg width="21px" height="21px" viewBox="0 0 21 21" version="1.1" xmlns="http://www.w3.org/2000/svg" xmlns:xlink="http://www.w3.org/1999/xlink">
    <!-- Generator: Sketch 3.8.3 (29802) - http://www.bohemiancoding.com/sketch -->
    <title>Shape</title>
    <desc>Created with Sketch.</desc>
    <defs></defs>
    <g id="学员管理" stroke="none" stroke-width="1" fill="none" fill-rule="evenodd">
        <g id="nav_btn_index" transform="translate(-39.000000, -56.000000)" fill="#FFFFFF">
            <g id="报表">
                <g transform="translate(0.000000, 44.000000)">
                    <path d="M39.0541339,13.782029 L40.8416712,13.782029 L40.8416712,30.3204483 L59.0541339,30.3204483 L59.0541339,32.1675564 L39.0541649,32.1675564 L39.0541649,13.782029 L39.0541339,13.782029 L39.0541339,13.782029 Z M41.7958817,21.1398145 L42.8246661,22.7620807 C42.8653852,22.7392273 42.9023771,22.7193918 42.9354865,22.7016072 C42.9468232,22.6959232 42.9898717,22.6738316 43.0539164,22.641749 C44.2667906,22.0348165 45.5399513,22.0462725 46.7474832,22.0568495 C49.7297871,22.0838926 52.3961535,22.107332 54.3059411,16.1498714 L55.6870026,16.5333977 L54.5677107,12.1675564 L51.1191725,15.2654464 L52.3803753,15.6155423 C50.8839277,20.2040573 48.9378626,20.1877377 46.7633236,20.1685174 C45.3068496,20.1550398 43.7703974,20.1415036 42.1193045,20.9675939 C42.091413,20.9817747 42.0423701,21.0074408 41.9616774,21.0494558 C41.9028197,21.0807474 41.8470368,21.1105739 41.7957575,21.1397852 L41.7957575,21.1397852 L41.7958817,21.1398145 Z M53.2320583,29.7184967 L56.5938163,29.7184967 L56.5938163,18.2382583 L53.2320583,21.8107657 L53.2320583,29.718526 L53.2320583,29.7184967 Z M48.2953654,29.7184967 L51.6578377,29.7184967 L51.6578377,25.5440377 L48.2953654,25.5440377 L48.2953654,29.7184967 L48.2953654,29.7184967 Z M43.5299657,29.7184967 L46.8917236,29.7184967 L46.8917236,23.7375089 L43.5299657,23.7375089 L43.5299657,29.7184967 L43.5299657,29.7184967 Z" id="Shape"></path>
                </g>
            </g>
        </g>
    </g>
</svg>