<?xml version="1.0" encoding="UTF-8"?>
<svg width="20px" height="20px" viewBox="0 0 20 20" version="1.1" xmlns="http://www.w3.org/2000/svg" xmlns:xlink="http://www.w3.org/1999/xlink">
    <!-- Generator: Sketch 40 (33762) - http://www.bohemiancoding.com/sketch -->
    <title>setting</title>
    <desc>Created with Sketch.</desc>
    <defs></defs>
    <g id="Page-12" stroke="none" stroke-width="1" fill="none" fill-rule="evenodd">
        <g id="setting" fill="#272636">
            <path d="M18.0067483,12.1892375 C18.0297312,12.3269338 18.0239992,12.4932902 17.9895156,12.6883799 C17.9551236,12.8834879 17.8977669,13.0814344 17.8174272,13.2821645 C17.7371425,13.4830045 17.6395702,13.6637001 17.5248385,13.8243245 C17.4101068,13.9850038 17.2838745,14.0997538 17.1461781,14.1686112 C17.0085367,14.2374685 16.8880547,14.2718605 16.7847137,14.2718605 C16.6814643,14.2718605 16.5667326,14.2488776 16.4405186,14.2029849 C16.3257869,14.1686111 16.1823219,14.137021 16.0102152,14.108361 C15.8381268,14.079646 15.6631449,14.0738957 15.4852879,14.0911283 C15.3074309,14.108361 15.1295921,14.1456282 14.9517351,14.2029849 C14.7738781,14.2603599 14.6218059,14.3579322 14.4955736,14.4955736 C14.2202358,14.782412 14.0595382,15.1094661 14.0136638,15.4766441 C13.9677711,15.8438405 14.0193958,16.193786 14.1686111,16.5265903 C14.2833428,16.756072 14.2660919,16.9855354 14.1169864,17.2150172 C14.0481108,17.3068575 13.9390561,17.4014814 13.7899141,17.4990537 C13.6407171,17.596571 13.4772359,17.6854263 13.2993971,17.7658026 C13.1215401,17.8461422 12.9350759,17.9092676 12.7400045,17.9551236 C12.5449881,18.0010163 12.3728081,18.0239993 12.2236844,18.0239993 C12.120435,18.0239993 12.0228627,17.9838569 11.931114,17.9034989 C11.8392737,17.8231593 11.7761666,17.7371425 11.7417746,17.6453022 L11.724542,17.6453022 C11.5983096,17.2896065 11.3832037,16.9826603 11.0791326,16.7244636 C10.7750616,16.4663584 10.4222227,16.3372509 10.0205793,16.3372509 C9.63050982,16.3372509 9.27768924,16.4663585 8.96209922,16.7244636 C8.64654583,16.9826603 8.42568958,17.2838562 8.29945725,17.6280696 C8.24210056,17.7657843 8.15599226,17.8661585 8.04126056,17.9292655 C7.92652886,17.9923725 7.80029651,18.023981 7.66260016,18.023981 C7.50197577,18.023981 7.3212619,17.9952477 7.12044021,17.9378727 C6.91969177,17.8804977 6.7188701,17.8087651 6.5180301,17.7227667 C6.31728166,17.6366584 6.13656779,17.5363025 5.97587015,17.4215708 C5.81526408,17.3068391 5.69478205,17.1920891 5.61442409,17.0773574 C5.55706739,16.9970178 5.52555051,16.9023023 5.51980019,16.7933026 C5.51406818,16.6843212 5.55706739,16.5323406 5.6489077,16.3372326 C5.77514005,16.0733039 5.82388958,15.772108 5.79515628,15.4336449 C5.76651456,15.0950902 5.6201744,14.7823937 5.35622739,14.4955553 C5.19562133,14.3234669 5.00053165,14.2115737 4.77106824,14.1599673 C4.54158651,14.1083427 4.32360543,14.0882349 4.11703342,14.0997355 C3.87606937,14.1112361 3.62937332,14.1571105 3.37690863,14.2374502 C3.21630257,14.2833428 3.05567818,14.2718422 2.89499884,14.2029666 C2.76876649,14.1570922 2.65115964,14.050986 2.54217826,13.884538 C2.43317857,13.7181816 2.33560625,13.5345926 2.24958952,13.3337526 C2.16348122,13.1330225 2.09751736,12.9264505 2.05162469,12.7142014 C2.00573201,12.5018791 1.99426799,12.3268972 2.01723264,12.1892008 C2.05162469,11.9368277 2.16635638,11.7761484 2.36144606,11.7072727 C2.70565948,11.5696313 3.01548088,11.3429515 3.29089189,11.0274897 C3.56624798,10.711918 3.70398096,10.3590974 3.70398096,9.96893635 C3.70398096,9.56736623 3.56626629,9.21740248 3.29089189,8.91908174 C3.01546255,8.62066942 2.70565948,8.40268835 2.36144606,8.26497367 C2.25819669,8.23059994 2.1721067,8.14738512 2.10324937,8.01540246 C2.03439204,7.88352967 2,7.74867184 2,7.61095718 C2,7.46185175 2.02298296,7.2954038 2.06885733,7.11181475 C2.11475001,6.9282074 2.17498186,6.75035036 2.24958952,6.57826197 C2.32419717,6.40617358 2.41019559,6.24842435 2.50778622,6.10495935 C2.60528527,5.96149436 2.71139149,5.85538813 2.82614151,5.7865125 C2.91798182,5.7291558 3.00687371,5.70624609 3.09296368,5.71765517 C3.1789621,5.72913749 3.27367757,5.75213878 3.37690863,5.7865125 C3.72119532,5.92422717 4.07976622,5.96724469 4.45260306,5.91562001 C4.82553145,5.86399532 5.15547895,5.70051408 5.44231737,5.42506643 C5.58003205,5.28744333 5.68040626,5.11812022 5.74351327,4.91737177 C5.80662028,4.71655008 5.84676264,4.51860357 5.86397698,4.32360545 C5.88120962,4.12849746 5.88120962,3.95067706 5.86397698,3.78996109 C5.84674433,3.62935503 5.8324601,3.51462331 5.82097777,3.44574767 C5.79801311,3.37689034 5.777887,3.29664224 5.76074591,3.20480193 C5.74351327,3.11303489 5.75213875,3.03267691 5.78653079,2.96383788 C5.85538812,2.80321349 5.978727,2.66264198 6.15658402,2.54215995 C6.33444105,2.42165961 6.52663725,2.3213037 6.73320926,2.24096405 C6.93968969,2.16060607 7.14052969,2.1003559 7.33561937,2.06023185 C7.53061747,2.0201078 7.6855648,2 7.80029649,2 C7.94951181,2 8.06711866,2.04874953 8.15311708,2.14634015 C8.23922538,2.2438209 8.29945723,2.34421342 8.33384928,2.44753606 C8.46008163,2.75726588 8.66665363,3.02982006 8.95347372,3.26505209 C9.24031214,3.50026582 9.57886681,3.61787268 9.96893629,3.61787268 C10.3705064,3.61787268 10.7262937,3.50601614 11.0360235,3.28228474 C11.3458449,3.05848009 11.5638993,2.77451683 11.6901316,2.43030341 C11.7360243,2.3384631 11.8077385,2.24383921 11.9052375,2.14634015 C12.0027549,2.04874953 12.1032024,2 12.2064334,2 C12.3670578,2 12.542113,2.02298296 12.7313791,2.06885733 C12.9207001,2.11475001 13.1071643,2.17785702 13.2907716,2.25819669 C13.4743607,2.3384631 13.6435922,2.44178574 13.7985212,2.56801807 C13.9534136,2.69425042 14.0767525,2.83189183 14.1685928,2.98107051 C14.2259495,3.07281925 14.2431089,3.17328503 14.2202175,3.28226641 C14.1972345,3.3912661 14.1743248,3.46873062 14.1513418,3.51462329 C14.0021448,3.84733608 13.9562705,4.19737308 14.0136455,4.56455115 C14.0710022,4.93165598 14.2374501,5.25297801 14.5128062,5.52838904 C14.788144,5.80374512 15.1266804,5.95581729 15.5282688,5.98445901 C15.9299122,6.01319229 16.3027673,5.94721012 16.647054,5.78649417 C16.7388027,5.72913748 16.8506593,5.70622776 16.9826236,5.71763684 C17.1146063,5.72911917 17.2264628,5.78074385 17.3183031,5.87258416 C17.4903915,6.03320855 17.6424087,6.27702944 17.7743731,6.60410178 C17.9063374,6.93106425 17.9952294,7.26099343 18.041177,7.59370621 C18.0640867,7.78877759 18.0325698,7.94088637 17.9464615,8.04984944 C17.8604631,8.15884913 17.7714979,8.23058163 17.6797309,8.26495537 C17.3239436,8.39118772 17.0198908,8.61213552 16.7675177,8.92759733 C16.515053,9.24316903 16.3888573,9.60172162 16.3888573,10.0034016 C16.3888573,10.3934711 16.4949635,10.7348094 16.7072859,11.0274714 C16.9195166,11.3200418 17.1978028,11.5293974 17.5420162,11.6556297 C17.6223009,11.7015224 17.69114,11.7474701 17.7484967,11.7933444 C17.8747839,11.8966487 17.9608739,12.0286131 18.0067483,12.1892375 L18.0067483,12.1892375 L18.0067483,12.1892375 Z M10.0034382,13.7383078 C10.51974,13.7383078 11.0074185,13.6407355 11.4663636,13.445719 C11.925382,13.2506476 12.3240769,12.9809503 12.6626133,12.6367369 C13.0010581,12.2925418 13.2678985,11.8937553 13.4628967,11.4405605 C13.657968,10.9872924 13.7554854,10.5024708 13.7554854,9.98616901 C13.7554854,9.46977562 13.657968,8.98499068 13.4628967,8.53179588 C13.2678985,8.07850951 13.0010764,7.68267138 12.6626133,7.34420828 C12.3240769,7.00567193 11.9253636,6.73894132 11.4663636,6.54385164 C11.0074184,6.34878027 10.5197584,6.25128121 10.0034382,6.25128121 C9.48704483,6.25128121 9.00224158,6.34876196 8.54904676,6.54385164 C8.09577869,6.73895963 7.69994059,7.00567193 7.36140422,7.34420828 C7.02292281,7.68265308 6.75611895,8.07849118 6.56112083,8.53179588 C6.36604946,8.98499068 6.26844052,9.46977562 6.26844052,9.98616901 C6.26844052,10.5024708 6.36603115,10.9872924 6.56112083,11.4405605 C6.75611893,11.8937553 7.0229228,12.2925418 7.36140422,12.6367369 C7.69994057,12.9809503 8.09577869,13.2506293 8.54904676,13.445719 C9.00224158,13.6407354 9.48706314,13.7383078 10.0034382,13.7383078 L10.0034382,13.7383078 L10.0034382,13.7383078 Z" id="menubar_icon_setting"></path>
        </g>
    </g>
</svg>