<?xml version="1.0" encoding="UTF-8"?>
<svg width="36px" height="36px" viewBox="0 0 36 36" version="1.1" xmlns="http://www.w3.org/2000/svg" xmlns:xlink="http://www.w3.org/1999/xlink">
    <!-- Generator: Sketch 40 (33762) - http://www.bohemiancoding.com/sketch -->
    <title>teacher</title>
    <desc>Created with Sketch.</desc>
    <defs></defs>
    <g id="Page-12" stroke="none" stroke-width="1" fill="none" fill-rule="evenodd">
        <g id="teacher" fill="#272636">
            <path d="M33.3603924,35.4348537 L33.0389741,36.0503673 L32.2093472,36.0503673 L2.94388684,36.0503673 L2,36.0503673 L2.01887774,35.1124418 C2.05563966,33.3443927 2.24044276,30.9464233 2.85943381,28.5971386 C3.50127689,26.1763172 4.6056245,23.8031869 6.48942396,22.1742369 L6.75669297,21.9457169 L7.10642788,21.9477041 L11.2232649,21.9069679 L11.2222714,23.8161033 L7.45566604,23.7833156 C6.04430682,25.1295963 5.17791803,27.0640676 4.6518253,29.0581528 C4.17441728,30.8530282 3.97471069,32.6901301 3.89969651,34.2097879 L31.5158388,34.2043233 C31.5640267,32.4675715 31.0563149,30.4153627 30.432356,28.4898335 C29.8044229,26.5484073 28.90624,24.895115 27.8267315,23.750528 L23.5226074,23.750528 L23.5226074,21.9064711 L28.4422451,21.9064711 L28.8202966,22.0306668 C30.2599725,23.3769475 31.4318825,25.5682553 32.1944437,27.9294628 C32.9947604,30.4014529 33.5923898,33.3061405 33.3603924,35.4348537 L33.3603924,35.4348537 L33.3603924,35.4348537 Z M17.987953,32.9752832 L15.5283825,31.1307296 L17.1205706,24.7406157 L16.5179734,23.7530119 L16.5651677,22.7425562 C17.7152193,22.6799616 18.0515411,22.6799616 19.2015927,22.7425562 L19.248787,23.7530119 L18.6461898,24.7406157 L20.4475234,31.1307296 L17.987953,32.9752832 L17.987953,32.9752832 L17.987953,32.9752832 Z M25.106847,14.4428101 C24.4754364,16.6192144 23.6155058,18.2486612 22.4624735,19.4548493 C21.2205171,20.7579099 19.6611166,21.5373617 17.7082644,21.9472074 L17.5497908,21.9790015 L17.3923107,21.9536656 C15.6287326,21.6585767 14.0703258,20.9114158 12.7747168,19.5959355 C11.5859162,18.3902443 10.6360679,16.7131064 9.97485035,14.479572 C9.41895068,14.1795153 9.00364044,13.6807457 8.72246151,13.010586 C8.41246921,12.2738575 8.26840227,11.3115896 8.28777679,10.1714737 L8.29473173,9.73132432 L8.66483473,9.48342984 C8.78903036,9.39798324 8.91521313,9.32296907 9.03990554,9.25640021 C8.47556055,5.83356842 8.62260818,2.91695802 10.70214,0.974041469 C12.3554323,-0.225688401 15.2606167,0.594002804 17.9218809,0.197570343 C25.5122215,-0.936087527 25.4610529,2.89857703 26.2181496,9.39798317 C26.2623632,9.42480942 26.3065768,9.45213248 26.3517841,9.48342977 L26.7218871,9.73132425 L26.728842,10.1714736 C26.747223,11.2887376 26.6106078,12.2341148 26.313035,12.9663722 C26.0427853,13.6315641 25.6418818,14.1343081 25.106847,14.4428101 L25.106847,14.4428101 L25.106847,14.4428101 Z M24.1962446,11.0214686 L24.0804942,10.634475 L23.8330965,10.6498752 L23.6915135,9.90817889 C23.5822213,9.32942723 23.413812,6.33283484 23.1947309,5.84102011 C22.5374876,6.11723123 21.8007591,5.60902267 21.1355673,5.22997757 L20.7977551,6.277692 L20.2552686,6.20665204 L20.327302,5.56828647 L19.7540149,6.47988246 L19.2438193,6.37953239 L19.7455697,5.02679347 C17.0599632,6.88128278 12.433924,6.78739086 11.8223847,5.95826077 C11.7265056,6.07550146 11.7086215,6.24192361 11.6589432,6.38797767 C11.5322637,6.88923128 11.3906806,9.99958686 11.2649947,10.4963694 L11.2312134,10.6781918 L11.2187939,10.6762047 C11.190974,10.7765548 11.1661349,10.8639885 11.140799,10.9419834 C10.9102919,10.7914583 10.4428195,10.9101893 10.0255222,10.9727839 C10.0642712,11.5257029 10.1581631,11.9911881 10.3121657,12.3543362 C10.4656715,12.7234456 10.6768041,12.9619012 10.9435763,13.0428768 L11.3991259,13.1829695 L11.5233215,13.6380223 C12.1085314,15.777168 12.9510746,17.3350781 14.0072343,18.4081284 C14.9913605,19.4061646 16.1756902,19.9908776 17.5184934,20.2422496 C19.045603,19.8979793 20.258746,19.2804786 21.2155492,18.2804553 C22.2284888,17.2198245 22.9845919,15.706128 23.5504272,13.6186478 L23.6676679,13.1839631 L24.0973848,13.0339347 C24.3586924,12.9435203 24.565354,12.7000969 24.7163758,12.3299938 C24.8629267,11.9698265 24.9548315,11.5147737 24.992587,10.9752678 C24.7417118,10.9802356 24.4868624,10.9866938 24.1962446,11.0214686 L24.1962446,11.0214686 L24.1962446,11.0214686 Z" id="Shape"></path>
        </g>
    </g>
</svg>