<?xml version="1.0" encoding="UTF-8"?>
<svg width="20px" height="20px" viewBox="0 0 20 20" version="1.1" xmlns="http://www.w3.org/2000/svg" xmlns:xlink="http://www.w3.org/1999/xlink">
    <!-- Generator: Sketch 40 (33762) - http://www.bohemiancoding.com/sketch -->
    <title>teaching</title>
    <desc>Created with Sketch.</desc>
    <defs></defs>
    <g id="Page-12" stroke="none" stroke-width="1" fill="none" fill-rule="evenodd">
        <g id="teaching" fill="#272636">
            <path d="M15.6,2 L14.4,5 L5.6,5 L4.4,2 C3.629,2 3,2.629 3,3.4 L3,18.6 C3,19.37 3.629,20 4.399,20 L15.599,20 C16.369,20 16.999,19.369 16.999,18.6 L16.999,3.4 C17,2.629 16.369,2 15.6,2 L15.6,2 Z M13.6,4 L14.5,2 L12.319,2 L11.6,0 L8.4,0 L7.68,2 L5.5,2 L6.399,4 L13.6,4 L13.6,4 Z" id="icon-教务管理"></path>
        </g>
    </g>
</svg>